<svg width="120" height="200" viewBox="0 0 120 200" fill="none" xmlns="http://www.w3.org/2000/svg">
<g clip-path="url(#clip0_2_17640)">
<path d="M87.3887 93.6943L89.9652 108.715C89.9652 108.715 90.0966 113.277 95.028 113.53C98.1991 113.699 100.151 107.672 100.151 107.672L98.0377 88.2906C98.0377 88.2906 97.6816 83.7003 95.9996 82.5021C94.3855 81.3552 92.2707 81.1116 90.6949 79.8577C88.9072 78.4373 88.6146 79.3942 88.6146 79.3942L87.3887 93.6943Z" fill="#05BFDD"/>
<path d="M31.223 76.877C31.0404 76.7568 29.6526 73.3958 29.6526 73.3958C29.6526 73.3958 27.3466 70.4298 27.1731 69.3943C26.9995 68.3588 27.5459 66.1004 27.5459 66.1004L32.9035 63.8736C32.9035 63.8736 35.0902 67.019 35.5736 68.1704C35.8525 68.814 35.8192 70.4211 35.7385 71.7069C35.6717 72.8008 35.4704 73.8828 36.4406 74.4529L37.6007 75.4337C37.6007 75.4337 34.1273 78.8097 31.223 76.877Z" fill="#FFCD97"/>
<path d="M27.2546 70.0157C26.9902 69.6356 26.7467 69.2414 26.5252 68.8347C26.073 68.0297 25.5462 67.2514 26.2859 66.6686C26.3953 66.5691 26.5253 66.495 26.6667 66.4515C26.808 66.4081 26.9572 66.3964 27.1035 66.4173C27.1035 66.4173 26.8991 65.7145 27.2853 65.3743C27.3959 65.2804 27.5277 65.2149 27.6693 65.1835C27.8109 65.1521 27.958 65.1558 28.0978 65.1941C28.0978 65.1941 27.8466 64.1991 28.3984 63.6828C28.6011 63.4987 28.8523 63.3767 29.1221 63.3312C29.392 63.2857 29.6692 63.3186 29.9209 63.426C29.9209 63.426 28.9242 59.0542 28.856 58.8259C28.6036 57.9823 28.8265 57.176 29.6855 57.2734C29.9992 57.3072 30.208 57.6174 30.7412 59.0147C31.2745 60.4121 32.133 62.7956 32.133 62.7956C32.133 62.7956 33.31 64.3977 33.8769 65.2716C34.4437 66.1455 35.6028 68.1843 35.7492 68.7262C36.1143 70.1655 35.5072 72.2262 35.5072 72.2262L29.6712 73.3929L27.2546 70.0157Z" fill="#FFD7AA"/>
<path d="M27.231 66.5902C27.4238 66.7717 27.6008 66.9694 27.7599 67.1811L28.3127 67.8424C28.4252 67.9764 28.5261 68.1197 28.6144 68.2708C28.7185 68.4412 28.7663 68.6402 28.7511 68.8394C28.7468 68.9432 28.7151 69.0441 28.6595 69.1319C28.6038 69.2196 28.5261 69.2912 28.434 69.3394C28.2633 69.4122 28.0708 69.4148 27.8983 69.3465C27.7523 69.2936 27.611 69.2283 27.4762 69.1513C27.3513 69.0801 27.2359 69.0147 27.1316 68.9481C26.925 68.8226 26.7581 68.7132 26.65 68.6313C26.5419 68.5495 26.4801 68.5032 26.4858 68.4937C26.4916 68.4841 26.7493 68.639 27.1741 68.8709C27.417 69.0124 27.6714 69.1332 27.9347 69.2318C28.0797 69.2852 28.2394 69.2835 28.3833 69.227C28.4554 69.1873 28.5159 69.1294 28.5587 69.0592C28.6016 68.9889 28.6254 68.9086 28.6277 68.8263C28.6405 68.655 28.5991 68.484 28.5092 68.3377C28.4237 68.1947 28.3273 68.0586 28.221 67.9303C28.0274 67.6813 27.8514 67.4507 27.6906 67.2488C27.5198 67.0421 27.3661 66.8218 27.231 66.5902Z" fill="#7B4B45"/>
<path d="M32.1104 66.4455C32.0171 66.135 31.9999 65.8066 32.0602 65.488C32.0751 65.1638 32.1653 64.8476 32.3238 64.5644C32.3581 64.572 32.231 64.9807 32.1836 65.5011C32.1363 66.0214 32.1436 66.442 32.1104 66.4455Z" fill="#7B4B45"/>
<path d="M27.2787 66.6514C28.0091 67.5364 28.6676 68.5174 29.3211 69.472C29.481 69.7653 29.717 70.0101 30.0042 70.1804C30.2437 70.2879 30.7755 69.9585 31.0056 69.8328L28.8381 66.0994" fill="#FFD6AA"/>
<path d="M28.8389 66.096C28.9114 66.1809 28.9743 66.2737 29.0264 66.3725L29.4992 67.1496C29.8958 67.8159 30.4428 68.7467 31.0561 69.8007L31.0901 69.8589L31.032 69.8929C30.8565 69.9838 30.6688 70.0973 30.4624 70.1813C30.38 70.2152 30.2945 70.2409 30.2071 70.2581C30.1604 70.2644 30.113 70.2648 30.0662 70.2592C30.0187 70.2584 29.9719 70.2479 29.9286 70.2286C29.7795 70.145 29.6487 70.0324 29.544 69.8973C29.334 69.641 29.1768 69.3749 29.0107 69.132C28.6801 68.6394 28.3809 68.2007 28.1197 67.85C27.8586 67.4993 27.6448 67.1952 27.4994 66.9895C27.414 66.8913 27.3386 66.785 27.2741 66.672C27.3686 66.7601 27.456 66.8557 27.5353 66.9577C27.6984 67.1494 27.9243 67.4309 28.1908 67.79C28.4573 68.1491 28.7684 68.5832 29.099 69.0758C29.2727 69.3168 29.4361 69.5879 29.6312 69.83C29.7286 69.951 29.8481 70.0524 29.9833 70.1288C30.1006 70.2019 30.2607 70.1472 30.4105 70.0903C30.5603 70.0334 30.7886 69.9001 30.9725 69.8038L30.9518 69.8967C30.3426 68.84 29.8082 67.9011 29.4285 67.2242L28.9858 66.4249C28.9291 66.3189 28.8799 66.209 28.8389 66.096Z" fill="#7B4B45"/>
<path d="M28.2436 64.9773L30.3777 68.9741C30.5136 69.2664 30.6982 69.5335 30.9236 69.7639C31.0345 69.8766 31.1724 69.9592 31.3242 70.0037C31.4759 70.0483 31.6365 70.0534 31.7908 70.0185C31.9936 69.927 32.1616 69.7726 32.2699 69.5782C32.3782 69.3838 32.4211 69.1596 32.3922 68.939C32.3309 68.5001 32.1789 68.0788 31.946 67.7019C31.3049 66.4828 30.7581 65.2163 30.3103 63.9136" fill="#FFD6AA"/>
<path d="M30.3035 63.9121C30.3276 63.9508 30.3462 63.9926 30.3589 64.0364L30.4988 64.3962C30.6213 64.7052 30.8021 65.1572 31.0409 65.7052C31.2798 66.2533 31.5812 66.9091 31.951 67.5982C32.1707 67.9577 32.3343 68.3485 32.4363 68.7574C32.4787 68.9877 32.463 69.2251 32.3907 69.4479C32.3189 69.6827 32.1638 69.8831 31.9547 70.0117C31.849 70.0689 31.732 70.102 31.6119 70.1083C31.4919 70.1147 31.372 70.0943 31.2608 70.0485C31.0495 69.9658 30.8645 69.8272 30.7257 69.6476C30.4833 69.307 30.2715 68.9456 30.0929 68.5676L29.1179 66.7071L28.4668 65.4496L28.2947 65.1043C28.2726 65.0642 28.2555 65.0216 28.2436 64.9773C28.2724 65.0129 28.2978 65.0512 28.3192 65.0917L28.5089 65.4229L29.1935 66.6589L30.1965 68.5076C30.3747 68.8755 30.5821 69.2284 30.8167 69.5631C30.9453 69.7248 31.1142 69.8496 31.3064 69.925C31.401 69.9646 31.5032 69.9824 31.6056 69.9771C31.708 69.9718 31.8079 69.9435 31.8979 69.8943C32.079 69.7824 32.2129 69.6079 32.2742 69.4039C32.3416 69.2021 32.3561 68.9865 32.3163 68.7776C32.2162 68.3806 32.0576 68.0007 31.8455 67.6506C31.4795 66.9442 31.1842 66.2934 30.9538 65.74C30.7234 65.1867 30.5552 64.7266 30.4496 64.4069C30.395 64.2467 30.3534 64.1255 30.329 64.0406C30.3154 63.9989 30.3069 63.9558 30.3035 63.9121Z" fill="#7B4B45"/>
<path d="M35.3927 67.7835C34.8295 67.3305 34.1601 67.0285 33.4479 66.906C32.7029 66.7744 31.9448 66.7341 31.1901 66.7859C30.5848 66.8136 29.8892 66.9223 29.5959 67.3481C29.3025 67.774 29.6067 68.369 30.1315 68.6376C30.702 68.8773 31.3241 68.9674 31.9391 68.8994C32.5592 68.8336 33.1841 68.8277 33.8053 68.8818" fill="#FFD6AA"/>
<path d="M33.8053 68.8817C33.8053 68.8817 33.6392 68.8664 33.3373 68.8605C33.0354 68.8547 32.609 68.8897 32.0606 68.9373C31.7644 68.9612 31.4669 68.965 31.1703 68.9484C30.8288 68.9319 30.4927 68.8571 30.1765 68.7271C29.8563 68.5942 29.6016 68.3402 29.4678 68.0202C29.4042 67.8623 29.3973 67.6871 29.4482 67.5246C29.5119 67.346 29.6334 67.1938 29.7935 67.0923C30.1465 66.8908 30.5432 66.7784 30.9493 66.7647C31.3417 66.7366 31.7185 66.7302 32.0812 66.7388C32.7155 66.7412 33.3462 66.8331 33.9548 67.0117C34.349 67.1244 34.7231 67.2979 35.0638 67.526C35.1518 67.5855 35.2362 67.6501 35.3166 67.7196C35.3674 67.767 35.3938 67.7945 35.3896 67.7972C35.3854 67.7999 35.27 67.702 35.0355 67.5558C34.6879 67.3464 34.3134 67.1852 33.9224 67.0767C33.3206 66.9123 32.6996 66.8286 32.0758 66.8278C31.7158 66.8235 31.352 66.8364 30.9638 66.8618C30.5814 66.8755 30.2077 66.9805 29.8741 67.1681C29.7325 67.2571 29.6242 67.3904 29.5659 67.5473C29.5234 67.6933 29.5291 67.8491 29.5824 67.9915C29.7067 68.286 29.9404 68.5206 30.2343 68.646C30.5349 68.7703 30.8549 68.8416 31.1799 68.8567C31.4719 68.8746 31.7647 68.8747 32.0568 68.857C32.5937 68.8285 33.0358 68.8042 33.3423 68.8219C33.4921 68.83 33.6113 68.8457 33.6953 68.8572L33.8053 68.8817Z" fill="#7B4B45"/>
<path d="M36.2078 73.2779C36.0473 73.2854 30.6662 75.2939 30.1153 75.6443C31.147 77.3802 31.5766 78.2705 31.9629 78.9019C34.3409 80.4754 37.9084 78.1352 38.0683 76.7045C37.2129 75.3437 36.4804 73.6745 36.2078 73.2779Z" fill="url(#paint0_radial_2_17640)"/>
<path d="M59.112 88.8289C59.1068 88.8433 59.1034 88.8583 59.1021 88.8736C59.0194 89.0177 58.9376 89.1584 58.8496 89.2941C58.7616 89.4298 58.5865 89.5353 58.4439 89.6732C58.3824 89.7233 58.3236 89.7765 58.2677 89.8326C57.6601 90.3727 56.9294 90.9792 56.1124 91.617C56.0337 91.6789 55.9515 91.7401 55.8742 91.7951C53.3502 93.7285 50.2469 95.7026 48.3178 96.0349C45.9775 96.4309 43.9508 96.2937 41.987 94.7727C41.537 94.4276 41.1205 94.041 40.7429 93.6179C38.3782 91.0288 34.1354 84.3952 30.0004 77.7315C30.1862 77.5453 33.9424 75.7673 37.3203 74.732C37.8817 75.6949 44.2831 83.9796 44.6095 84.4424C44.7121 84.6374 44.7642 84.8552 44.7608 85.0756C44.7649 85.1379 44.7759 85.2018 44.7759 85.2668C44.7997 85.6947 44.8388 86.1512 45.1049 86.3983C45.1666 86.4668 45.2443 86.5188 45.331 86.5498C45.828 86.7328 45.9832 86.7493 46.0877 86.9929C46.1495 87.1577 46.1936 87.3285 46.2196 87.5026C46.2306 87.5665 46.2424 87.6269 46.2588 87.6991C46.3113 87.5525 46.3733 87.4095 46.4444 87.271C46.5012 87.1794 46.5707 87.0964 46.6509 87.0244C46.8632 86.8598 47.1072 86.7408 47.3676 86.6748C47.5038 86.6266 47.6483 86.606 47.7926 86.6142C47.9936 86.6193 48.1487 86.6358 48.4986 86.3128L48.7692 86.0372C49.4392 85.3305 51.9969 82.6786 54.2827 79.9843C54.34 79.9212 54.3966 79.8616 54.4429 79.7997C54.9332 79.219 56.5931 76.8873 57.0684 76.3575C59.8871 73.2148 60.7995 75.0975 62.5168 75.0033C62.5298 75.5444 63.2089 74.7964 62.9219 76.5383C62.3414 80.1326 61.0933 85.3949 59.112 88.8289Z" fill="#05BFDD"/>
<path style="mix-blend-mode:multiply" d="M44.7489 85.2753C44.7727 85.7031 44.8117 86.1597 45.0779 86.4068C44.9501 86.7825 44.8455 87.1656 44.7646 87.5541C44.4035 89.1748 43.5326 91.0431 42.9011 90.7507C42.2697 90.4583 42.2895 90.0293 42.4733 89.431C42.6039 88.9581 43.8588 86.565 44.7532 85.0776C44.7516 85.1495 44.7386 85.208 44.7489 85.2753Z" fill="url(#paint1_linear_2_17640)"/>
<path style="mix-blend-mode:multiply" d="M46.2033 91.3021C45.8996 92.8272 45.2738 94.3889 45.1871 93.8387C45.1003 93.2884 45.7397 88.5226 45.9697 87.4903C46.0087 87.3314 46.0385 87.1705 46.059 87.0082C46.1207 87.173 46.1649 87.3438 46.1909 87.5179C46.2019 87.5818 46.2137 87.6422 46.2301 87.7144C46.2913 87.5619 46.3629 87.4137 46.4444 87.271C46.5012 87.1794 46.5707 87.0964 46.6509 87.0245C46.3148 87.8525 46.4866 89.8844 46.2033 91.3021Z" fill="url(#paint2_linear_2_17640)"/>
<path style="mix-blend-mode:multiply" d="M48.543 93.8567C48.3229 94.5047 48.2369 93.4815 47.9503 91.8032C47.6876 90.2603 47.7929 87.7953 47.8013 86.6234C48.0023 86.6284 48.1574 86.6449 48.5072 86.322C48.5781 88.2556 48.7162 93.2741 48.543 93.8567Z" fill="url(#paint3_linear_2_17640)"/>
<g style="mix-blend-mode:multiply" opacity="0.2">
<g style="mix-blend-mode:multiply" opacity="0.2">
<path d="M45.4216 93.4828C45.4786 92.7081 45.5586 91.9278 45.6497 91.1463C45.7408 90.3648 45.8433 89.5966 45.9646 88.8255C46.0371 88.3866 46.1012 87.953 46.1806 87.5156C46.1916 87.5795 46.2034 87.6399 46.2198 87.7121C46.2845 87.5601 46.3596 87.4127 46.4445 87.271C46.383 87.8063 46.3176 88.3263 46.2408 88.8653C46.1368 89.6403 46.006 90.4058 45.8763 91.1823C45.7467 91.9588 45.5902 92.7258 45.4216 93.4828Z" fill="#2B2B33"/>
</g>
<g style="mix-blend-mode:multiply" opacity="0.2">
<path d="M45.4216 93.4828C45.4786 92.7081 45.5586 91.9278 45.6497 91.1463C45.7408 90.3648 45.8433 89.5966 45.9646 88.8255C46.0371 88.3866 46.1012 87.953 46.1806 87.5156C46.1916 87.5795 46.2034 87.6399 46.2198 87.7121C46.2845 87.5601 46.3596 87.4127 46.4445 87.271C46.383 87.8063 46.3176 88.3263 46.2408 88.8653C46.1368 89.6403 46.006 90.4058 45.8763 91.1823C45.7467 91.9588 45.5902 92.7258 45.4216 93.4828Z" fill="#323235"/>
</g>
</g>
<g style="mix-blend-mode:multiply" opacity="0.2">
<g style="mix-blend-mode:multiply" opacity="0.2">
<path d="M42.7943 89.1558C42.6374 89.388 42.5604 89.6651 42.5752 89.9449C42.6038 90.1038 42.681 90.2497 42.7962 90.3627C42.9113 90.4757 43.0587 90.5501 43.2179 90.5757C43.04 90.5644 42.8696 90.4995 42.7292 90.3896C42.5888 90.2797 42.4849 90.1299 42.4312 89.9598C42.3694 89.6574 42.4177 89.3428 42.5674 89.0728C42.823 88.541 43.0859 88.0253 43.3545 87.5001C43.6231 86.9748 43.9157 86.4874 44.2023 85.9625C44.3759 85.669 44.5504 85.3719 44.7336 85.0841C44.7377 85.1464 44.7488 85.2103 44.7488 85.2753C44.6409 85.5329 44.5261 85.7891 44.4009 86.0429C44.1404 86.5808 43.8809 87.0972 43.6318 87.616C43.3827 88.1348 43.0729 88.6509 42.7943 89.1558Z" fill="#2B2B33"/>
</g>
<g style="mix-blend-mode:multiply" opacity="0.2">
<path d="M42.7943 89.1558C42.6374 89.388 42.5604 89.6651 42.5752 89.9449C42.6038 90.1038 42.681 90.2497 42.7962 90.3627C42.9113 90.4757 43.0587 90.5501 43.2179 90.5757C43.04 90.5644 42.8696 90.4995 42.7292 90.3896C42.5888 90.2797 42.4849 90.1299 42.4312 89.9598C42.3694 89.6574 42.4177 89.3428 42.5674 89.0728C42.823 88.541 43.0859 88.0253 43.3545 87.5001C43.6231 86.9748 43.9157 86.4874 44.2023 85.9625C44.3759 85.669 44.5504 85.3719 44.7336 85.0841C44.7377 85.1464 44.7488 85.2103 44.7488 85.2753C44.6409 85.5329 44.5261 85.7891 44.4009 86.0429C44.1404 86.5808 43.8809 87.0972 43.6318 87.616C43.3827 88.1348 43.0729 88.6509 42.7943 89.1558Z" fill="#323235"/>
</g>
</g>
<g style="mix-blend-mode:multiply" opacity="0.2">
<g style="mix-blend-mode:multiply" opacity="0.2">
<path d="M48.1259 87.5481C48.2005 88.0234 48.2742 88.5021 48.3095 88.9759C48.3447 89.4496 48.4005 89.928 48.4315 90.4044C48.4625 90.8808 48.4729 91.3527 48.4757 91.8264C48.4784 92.3001 48.4666 92.7743 48.448 93.2469C48.37 92.7708 48.2996 92.2928 48.2541 91.8168C48.2085 91.3407 48.1733 90.867 48.1423 90.3905C48.1112 89.9141 48.1085 89.4404 48.0989 88.9651C48.0893 88.4898 48.1072 88.0207 48.1259 87.5481Z" fill="#2B2B33"/>
</g>
<g style="mix-blend-mode:multiply" opacity="0.2">
<path d="M48.1259 87.5481C48.2005 88.0234 48.2742 88.5021 48.3095 88.9759C48.3447 89.4496 48.4005 89.928 48.4315 90.4044C48.4625 90.8808 48.4729 91.3527 48.4757 91.8264C48.4784 92.3001 48.4666 92.7743 48.448 93.2469C48.37 92.7708 48.2996 92.2928 48.2541 91.8168C48.2085 91.3407 48.1733 90.867 48.1423 90.3905C48.1112 89.9141 48.1085 89.4404 48.0989 88.9651C48.0893 88.4898 48.1072 88.0207 48.1259 87.5481Z" fill="#323235"/>
</g>
</g>
<g style="mix-blend-mode:multiply" opacity="0.2">
<g style="mix-blend-mode:multiply" opacity="0.2">
<path d="M58.4266 89.6695C58.3652 89.7196 58.3064 89.7728 58.2504 89.8289C58.1667 89.8319 58.0735 89.8292 57.9913 89.8253C57.2634 89.797 56.5374 89.7293 55.8168 89.6226C55.095 89.5142 54.3799 89.3657 53.6746 89.1779C52.9683 88.9893 52.2792 88.7671 51.6071 88.5115C52.2879 88.6956 53.0103 88.871 53.7183 89.0143C54.4262 89.1575 55.1312 89.2821 55.8457 89.3799C56.5602 89.4776 57.2754 89.5719 57.983 89.6357C58.1313 89.6506 58.2803 89.6622 58.4266 89.6695Z" fill="#2B2B33"/>
</g>
<g style="mix-blend-mode:multiply" opacity="0.2">
<path d="M58.4266 89.6695C58.3652 89.7196 58.3064 89.7728 58.2504 89.8289C58.1667 89.8319 58.0735 89.8292 57.9913 89.8253C57.2634 89.797 56.5374 89.7293 55.8168 89.6226C55.095 89.5142 54.3799 89.3657 53.6746 89.1779C52.9683 88.9893 52.2792 88.7671 51.6071 88.5115C52.2879 88.6956 53.0103 88.871 53.7183 89.0143C54.4262 89.1575 55.1312 89.2821 55.8457 89.3799C56.5602 89.4776 57.2754 89.5719 57.983 89.6357C58.1313 89.6506 58.2803 89.6622 58.4266 89.6695Z" fill="#323235"/>
</g>
</g>
<g style="mix-blend-mode:multiply" opacity="0.2">
<g style="mix-blend-mode:multiply" opacity="0.2">
<path d="M59.112 88.8289C59.1068 88.8434 59.1034 88.8584 59.102 88.8737C58.7226 88.8433 58.3409 88.7908 57.9684 88.7295C57.4709 88.6476 56.9785 88.5379 56.4933 88.4009C56.0092 88.2604 55.533 88.0941 55.0668 87.9025C54.6072 87.7134 54.1629 87.4881 53.7325 87.2657C54.2023 87.4246 54.6787 87.5705 55.1502 87.7224C55.6216 87.8744 56.1046 88.0073 56.5756 88.1447L58.0083 88.5506C58.3575 88.6356 58.7284 88.7363 59.112 88.8289Z" fill="#2B2B33"/>
</g>
<g style="mix-blend-mode:multiply" opacity="0.2">
<path d="M59.112 88.8289C59.1068 88.8434 59.1034 88.8584 59.102 88.8737C58.7226 88.8433 58.3409 88.7908 57.9684 88.7295C57.4709 88.6476 56.9785 88.5379 56.4933 88.4009C56.0092 88.2604 55.533 88.0941 55.0668 87.9025C54.6072 87.7134 54.1629 87.4881 53.7325 87.2657C54.2023 87.4246 54.6787 87.5705 55.1502 87.7224C55.6216 87.8744 56.1046 88.0073 56.5756 88.1447L58.0083 88.5506C58.3575 88.6356 58.7284 88.7363 59.112 88.8289Z" fill="#323235"/>
</g>
</g>
<g style="mix-blend-mode:multiply" opacity="0.2">
<g style="mix-blend-mode:multiply" opacity="0.2">
<path d="M56.0952 91.6133C56.0164 91.6752 55.9343 91.7364 55.8571 91.7914C55.5831 91.8062 55.3117 91.8252 55.0385 91.8366C54.5723 91.8555 54.1084 91.8641 53.6453 91.8693C53.1822 91.8745 52.7091 91.8594 52.2387 91.8485C52.6973 91.799 53.1532 91.7452 53.6164 91.7076C54.0795 91.6699 54.5361 91.6452 55.0015 91.6297C55.3638 91.6237 55.7276 91.6109 56.0952 91.6133Z" fill="#2B2B33"/>
</g>
<g style="mix-blend-mode:multiply" opacity="0.2">
<path d="M56.0952 91.6133C56.0164 91.6752 55.9343 91.7364 55.8571 91.7914C55.5831 91.8062 55.3117 91.8252 55.0385 91.8366C54.5723 91.8555 54.1084 91.8641 53.6453 91.8693C53.1822 91.8745 52.7091 91.8594 52.2387 91.8485C52.6973 91.799 53.1532 91.7452 53.6164 91.7076C54.0795 91.6699 54.5361 91.6452 55.0015 91.6297C55.3638 91.6237 55.7276 91.6109 56.0952 91.6133Z" fill="#323235"/>
</g>
</g>
<g style="mix-blend-mode:multiply" opacity="0.2">
<g style="mix-blend-mode:multiply" opacity="0.2">
<path d="M58.7289 80.5522C58.1867 80.5398 57.6304 80.5097 57.0786 80.4591C56.5269 80.4084 55.9798 80.3371 55.4311 80.2401C55.0529 80.1559 54.6666 80.0915 54.2929 79.9866C54.3503 79.9235 54.4069 79.8639 54.4532 79.802L55.4668 79.9989C56.007 80.1012 56.548 80.2 57.0982 80.2901C57.6484 80.3801 58.1787 80.4946 58.7289 80.5522Z" fill="#2B2B33"/>
</g>
<g style="mix-blend-mode:multiply" opacity="0.2">
<path d="M58.7289 80.5522C58.1867 80.5398 57.6304 80.5097 57.0786 80.4591C56.5269 80.4084 55.9798 80.3371 55.4311 80.2401C55.0529 80.1559 54.6666 80.0915 54.2929 79.9866C54.3503 79.9235 54.4069 79.8639 54.4532 79.802L55.4668 79.9989C56.007 80.1012 56.548 80.2 57.0982 80.2901C57.6484 80.3801 58.1787 80.4946 58.7289 80.5522Z" fill="#323235"/>
</g>
</g>
<g style="mix-blend-mode:darken">
<path style="mix-blend-mode:darken" d="M33.5724 82.2401C33.9238 82.3184 34.259 82.1554 34.3213 81.876C34.3835 81.5967 34.1491 81.3068 33.7978 81.2285C33.4465 81.1502 33.1112 81.3133 33.049 81.5926C32.9868 81.872 33.2211 82.1619 33.5724 82.2401Z" fill="url(#paint4_radial_2_17640)"/>
<path style="mix-blend-mode:darken" d="M32.5925 80.8228C32.9438 80.901 33.279 80.738 33.3413 80.4587C33.4035 80.1793 33.1692 79.8894 32.8178 79.8111C32.4665 79.7329 32.1313 79.8959 32.069 80.1752C32.0068 80.4546 32.2411 80.7445 32.5925 80.8228Z" fill="url(#paint5_radial_2_17640)"/>
<path style="mix-blend-mode:darken" d="M31.8207 79.5239C32.1721 79.6022 32.5073 79.4392 32.5695 79.1598C32.6318 78.8805 32.3974 78.5906 32.0461 78.5123C31.6948 78.4341 31.3595 78.5971 31.2973 78.8764C31.2351 79.1558 31.4694 79.4457 31.8207 79.5239Z" fill="url(#paint6_radial_2_17640)"/>
</g>
<path d="M69.0389 195.927C68.9846 196.002 68.9221 196.071 68.8527 196.132C67.9075 196.972 65.7138 196.985 64.2399 196.57C62.7659 196.155 61.4183 195.4 61.1748 194.338C61.1569 194.24 61.1384 194.146 61.13 194.054C61.0363 193.065 61.5521 191.981 62.2215 190.92C63.0349 189.59 63.7569 188.206 64.3821 186.778C65.5629 186.16 67.1117 186.465 68.853 187.608C69.1609 188.348 69.0616 190.511 69.1999 191.803C69.334 192.999 69.7315 194.973 69.0389 195.927Z" fill="#511702"/>
<path d="M64.4274 193.849C65.2207 194.387 67.313 194.553 67.8443 193.707C67.4937 195.2 65.2274 195.313 64.4274 193.849Z" fill="url(#paint7_radial_2_17640)"/>
<path d="M65.3919 186.393C64.9971 188.165 64.3802 189.508 63.9835 190.803C63.5868 192.098 63.5179 193.379 65.4098 193.83C67.3018 194.28 67.7473 192.62 67.7239 191.542C67.7006 190.465 67.7851 188.027 68.2968 186.881C67.1208 185.517 66.242 185.946 65.3919 186.393Z" fill="#E8780A"/>
<path style="mix-blend-mode:multiply" d="M69.0389 195.927C68.9846 196.002 68.9221 196.071 68.8527 196.132C67.9075 196.972 65.7138 196.985 64.2399 196.57C62.7659 196.155 61.4183 195.4 61.1748 194.338C61.1569 194.24 61.1383 194.146 61.13 194.054C61.7916 194.923 63.0322 195.673 64.7824 196.063C66.622 196.473 68.1509 196.333 69.0389 195.927Z" fill="url(#paint8_linear_2_17640)"/>
<path d="M48.6967 188.933L48.0283 189.665L46.7759 189.422L48.3531 188.531L48.6967 188.933Z" fill="url(#paint9_radial_2_17640)"/>
<path d="M50.1019 187.501C50.0085 187.994 49.8833 188.48 49.7272 188.956L48.0153 189.658L48.1411 188.867C47.5457 189.488 46.843 189.998 46.0668 190.369C45.0757 190.752 43.2765 190.889 40.7238 190.602C38.1711 190.315 35.9161 189.502 35.7862 188.205C35.7862 188.205 35.7924 188.178 35.7962 188.161C35.7096 187.56 35.846 186.948 36.1795 186.44C36.5516 185.953 37.9007 185.097 39.7538 184.167C41.6069 183.236 42.2534 182.148 42.9729 180.506C44.761 179.641 48.4565 180.095 50.462 180.911C50.6091 181.579 50.6769 184.758 50.1019 187.501Z" fill="#511702"/>
<path opacity="0.7" d="M42.2097 188.177C39.244 188.885 36.7767 188.264 37.1266 186.612C37.2266 187.378 38.9646 188.39 42.2097 188.177Z" fill="url(#paint10_radial_2_17640)"/>
<path d="M43.1224 180.435C42.759 181.424 42.341 182.392 41.8702 183.334C41.5778 183.966 39.2972 185.26 38.6962 185.657C38.0953 186.054 37.8233 187.146 39.1967 187.477C40.5702 187.808 41.4974 188.134 43.4595 187.054C45.4217 185.975 46.6811 183.561 47.1859 181.846C46.3019 179.836 44.2406 180.146 43.1224 180.435Z" fill="#E8780A"/>
<path style="mix-blend-mode:multiply" d="M50.1019 187.501C50.0085 187.994 49.8834 188.48 49.7273 188.956L48.0153 189.658L48.1411 188.867C47.5457 189.488 46.843 189.998 46.0668 190.369C45.0757 190.752 43.2766 190.889 40.7239 190.602C38.1711 190.315 35.9161 189.502 35.7863 188.205C36.6703 188.984 38.17 189.672 40.1347 189.958C42.9323 190.361 44.8471 190.238 45.4544 190.088C46.0617 189.938 47.6669 188.84 48.0776 188.455C48.4121 188.169 49.456 187.776 50.1019 187.501Z" fill="url(#paint11_linear_2_17640)"/>
<path d="M80.3387 136.472C81.8203 130.739 82.6033 125.604 82.6876 121.067L54.2297 116.87C52.4784 120.551 51.4312 123.734 51.088 126.42L48.7771 144.473C47.9483 156.293 48.0849 156.555 44.4118 173.983L43.1473 175.868L43.6257 177.058L42.3258 177.563L41.7348 180.216L45.0221 185.355L50.4402 184.59L52.3348 182.776C55.2609 170.127 57.8921 157.279 60.2285 144.232C63.0982 129.341 64.4128 132.48 64.6834 132.464C65.6264 132.551 65.932 137.871 65.6001 148.423C64.3645 165.31 64.8085 167.561 62.1201 183.891L63.1056 184.926L61.8535 185.865L62.2296 188.632L66.67 190.636L69.8791 189.726L72.4842 186.716L80.3387 136.472Z" fill="#05BFDD"/>
<path style="mix-blend-mode:multiply" d="M57.9978 124.445L49.7242 121.849L49.4594 138.979C49.4594 138.979 48.4906 145.969 48.4591 148.978C48.4277 151.986 47.5779 157.681 47.5779 157.681L46.6757 162.897L45.9774 166.436L45.4273 169.116L44.4052 173.996L43.1408 175.881L43.6192 177.071L42.3192 177.576L41.7282 180.229C41.7282 180.229 43.1694 182.605 45.1389 185.348C47.2631 178.551 57.9978 124.445 57.9978 124.445Z" fill="url(#paint12_linear_2_17640)"/>
<path style="mix-blend-mode:multiply" d="M66.6507 190.657L73.5192 137.824L80.5225 135.743L75.058 170.188L73.1208 182.545L72.4642 186.74L69.8565 189.746L66.6507 190.657Z" fill="url(#paint13_linear_2_17640)"/>
<path d="M76.2178 72.1324L73.2793 68.2959C72.8193 70.3605 72.3459 71.4649 71.835 71.5389C72.3849 74.1185 73.5208 76.5366 75.1547 78.6061C79.0884 78.1533 82.2938 76.58 84.7707 73.8861C84.2136 73.4923 84.0203 72.4861 84.1908 70.8675C82.6496 71.3895 81.1672 72.0712 79.7676 72.9015C78.5402 72.9286 77.3239 72.665 76.2178 72.1324Z" fill="#FEA55C"/>
<path d="M73.2793 68.2959L76.2179 72.1324C77.3257 72.6754 78.5466 72.9474 79.7802 72.926C81.1798 72.0957 82.6623 71.4139 84.2034 70.892C84.3823 69.2464 84.9453 66.9568 85.8924 64.0232C81.9862 63.4243 78.1211 62.5838 74.3191 61.5064C73.9844 64.391 73.6378 66.6542 73.2793 68.2959Z" fill="#E27921"/>
<path d="M86.1168 74.6482C82.2833 76.9942 78.754 77.7862 75.5287 77.0244C72.5415 85.5085 70.352 93.117 68.9604 99.8498C73.6894 92.0474 79.4105 83.6474 86.1237 74.6497L86.1168 74.6482ZM75.5356 77.0259C72.946 76.4129 70.5524 74.7962 68.3547 72.1757C68.9245 81.693 69.064 91.0254 68.7731 100.173C68.8411 100.062 68.9057 99.9496 68.9666 99.8548C70.3556 93.1118 72.543 85.5017 75.5287 77.0244L75.5356 77.0259Z" fill="#CCCCCC"/>
<path d="M75.5303 77.0176L72.8477 84.604L71.7195 88.275L70.3225 93.4933L69.4816 97.1705L68.9743 99.8529L72.0248 88.3791L75.5299 77.0355C75.5299 77.0355 75.5406 77.0199 75.5303 77.0176Z" fill="#006699"/>
<path d="M75.7384 81.0404L73.4312 80.5264C70.087 88.0859 67.2697 95.2451 64.9796 102.004C65.3683 104.129 66.1609 106.159 67.3142 107.985C68.7034 106.456 70.2653 105.094 71.9684 103.926C73.653 96.374 74.9117 88.7335 75.7384 81.0404Z" fill="#E8780A"/>
<path d="M73.4312 80.5264L75.7385 81.0404C77.3065 80.0823 78.0413 79.0035 77.9427 77.8042C76.3886 77.2195 74.7601 76.8567 73.1048 76.7264C72.4504 78.1192 72.5592 79.3859 73.4312 80.5264Z" fill="#E8780A"/>
<path d="M68.4891 80.4187L68.5426 80.3728C70.6413 78.8239 73.0258 77.7065 75.5585 77.0853L72.4455 70.7431L68.276 72.1727L68.4891 80.4187ZM81.1005 83.7519L81.2359 84.0023L86.5103 75.4258C86.1765 74.6074 85.4174 73.7376 84.2147 72.8666L75.5772 77.0822L75.8289 77.2972C77.9461 79.1213 79.7248 81.3051 81.0833 83.748L81.1005 83.7519Z" fill="white"/>
<path d="M75.8102 77.3002L75.5585 77.0852C73.0293 77.7084 70.6483 78.8265 68.5529 80.3751L68.6285 81.526C70.7063 79.633 73.1559 78.1945 75.8205 77.3025L75.8102 77.3002ZM80.9525 84.3834L81.0936 83.7503C79.7315 81.3097 77.9497 79.1289 75.8301 77.3082C77.4982 79.8324 79.2023 82.1901 80.9422 84.3811L80.9525 84.3834Z" fill="black" fill-opacity="0.3"/>
<path d="M69.0596 100.782L68.982 100.855L65.376 119.974C65.23 120.733 65.2353 121.514 65.3914 122.271C66.4647 116.372 67.6719 109.334 69.0127 101.154L69.0596 100.782Z" fill="#02AFD6"/>
<path d="M68.982 100.855L69.0596 100.782L68.999 101.151C67.6576 109.333 66.4505 116.372 65.3776 122.268C65.3783 122.288 65.3811 122.308 65.386 122.327C65.8508 124.388 67.5327 126.175 70.432 127.688C74.3822 129.743 78.4614 129.793 82.6695 127.839C82.7098 125.163 82.7283 122.92 82.7252 121.108L84.0878 108.771C84.4123 105.824 85.6191 102.286 87.7082 98.1573C89.8993 93.8298 93.0227 88.9467 97.0783 83.5081L88.8149 75.8705L68.7296 100.448L67.1271 72.4693L59.094 74.6851C59.8602 81.8766 59.9194 89.1261 59.2708 96.3296C58.6182 103.461 55.7891 111.695 50.7832 121.032C52.2214 124.145 54.376 125.62 57.2471 125.455C61.1375 125.132 63.8411 123.311 65.3578 119.991L68.982 100.855Z" fill="#02AFD6"/>
<path d="M69.9547 106.89C70.5927 107.032 71.2253 106.63 71.3676 105.991C71.5098 105.353 71.1078 104.72 70.4698 104.578C69.8317 104.436 69.1991 104.838 69.0569 105.477C68.9146 106.115 69.3166 106.748 69.9547 106.89Z" fill="#05BFDD"/>
<path d="M68.8677 111.769C69.5058 111.912 70.1384 111.509 70.2806 110.871C70.4229 110.232 70.0209 109.599 69.3828 109.457C68.7447 109.315 68.1122 109.717 67.9699 110.356C67.8277 110.994 68.2296 111.627 68.8677 111.769Z" fill="#05BFDD"/>
<path d="M67.9737 116.739C68.6117 116.881 69.2443 116.478 69.3866 115.84C69.5288 115.201 69.1269 114.568 68.4888 114.426C67.8507 114.284 67.2181 114.687 67.0759 115.325C66.9336 115.964 67.3356 116.596 67.9737 116.739Z" fill="#05BFDD"/>
<path d="M83.7471 99.3481L75.2574 97.4568L74.9163 98.988L83.406 100.879L83.7471 99.3481Z" fill="#05BFDD"/>
<path d="M66.7871 79.747L63.9633 72.8842L66.4816 79.4009L63.3402 80.7525L67.4777 96.121L63.7725 81.0474L66.8009 79.7501L66.7871 79.747ZM86.8342 85.7335L85.0727 82.867L90.7201 78.0755L84.4795 82.5001L86.3393 85.8327L77.5806 93.5247L86.8342 85.7335Z" fill="#D8F2FF"/>
<path d="M86.9171 74.3931C86.0027 73.8211 85.3993 73.4675 85.107 73.3326C79.2014 82.1827 73.9311 90.8493 69.2959 99.3323L69.2538 99.424C70.3803 90.2846 70.9276 83.2698 70.8958 78.3797C70.8639 73.4896 70.7797 71.0269 70.6432 70.9917L63.9625 72.8876L66.7863 79.7504L63.7579 81.0478L67.4631 96.1213L68.7533 101.136L77.5867 93.5297L86.3454 85.8376L84.4856 82.5051L90.7262 78.0805L91.0301 77.8665L91.0099 77.8439C89.197 76.1206 87.8328 74.9703 86.9171 74.3931Z" fill="#05BFDD"/>
<path d="M69.9737 93.2928L74.383 80.7421L73.4271 80.5291L70.6615 87.1436L69.9737 93.2928Z" fill="#B75C09"/>
<path d="M100.447 59.9627C101.759 58.3336 103.128 57.4539 104.213 57.8653C105.298 58.2768 105.303 59.7443 104.857 61.0028C104.41 62.2614 104.128 63.2711 103.797 64.4976C103.491 65.8409 102.75 67.0458 101.69 67.9254C100.367 69.1006 100.014 69.9248 98.819 70.2834C97.6239 70.642 96.6159 68.8319 96.6159 68.8319C97.2074 65.966 99.5191 61.114 100.447 59.9627Z" fill="#FDCB94"/>
<path style="mix-blend-mode:darken" d="M103.991 61.9874C104.161 60.6275 104.25 59.9974 104.011 59.6948C103.772 59.3923 103.22 59.5186 102.45 60.3691C101.679 61.2196 100.332 62.971 100.155 63.4913C99.9779 64.0116 100.131 64.295 100.411 64.8232C100.69 65.3513 100.901 65.8607 100.195 66.7616C99.4894 67.6626 99.1372 68.1584 98.3507 68.2541C99.0003 68.8213 99.7958 68.4098 100.805 67.3308C101.814 66.2518 103.656 64.7372 103.991 61.9874Z" fill="url(#paint14_linear_2_17640)"/>
<path d="M104.086 60.3292C104.131 60.2576 104.158 60.1763 104.165 60.0921C104.172 60.0079 104.159 59.9233 104.126 59.8453C104.094 59.7674 104.043 59.6983 103.978 59.644C103.914 59.5897 103.837 59.5516 103.755 59.533C103.59 59.4956 103.419 59.4981 103.256 59.5403C103.093 59.5825 102.942 59.6631 102.817 59.7755C102.351 60.1889 101.908 60.6267 101.489 61.0868C101.031 61.5357 100.698 62.0965 100.523 62.7138C100.433 63.0244 100.438 63.3554 100.54 63.6626C100.642 63.9698 100.835 64.2387 101.093 64.4335C100.899 64.2111 100.768 63.9407 100.714 63.6504C100.66 63.3601 100.685 63.0606 100.786 62.7831C100.993 62.2268 101.322 61.7238 101.749 61.311C102.164 60.8726 102.548 60.3803 102.972 59.969C103.068 59.8689 103.184 59.7911 103.313 59.7412C103.442 59.6913 103.58 59.6705 103.718 59.6802C103.79 59.6892 103.859 59.7148 103.919 59.7551C103.979 59.7954 104.029 59.8492 104.065 59.9123C104.101 59.9753 104.121 60.0458 104.125 60.1182C104.129 60.1906 104.116 60.2629 104.086 60.3292Z" fill="#9E5D45"/>
<path d="M100.21 63.7491C100.095 64.2652 100.498 64.7089 100.627 65.1169C100.68 65.3294 100.683 65.5514 100.635 65.7652C100.587 65.979 100.491 66.1788 100.352 66.3488C100.089 66.7391 99.8041 67.1145 99.4991 67.4733C99.2095 67.8455 98.812 68.119 98.3611 68.2564C98.6122 68.256 98.8607 68.2049 99.0917 68.1062C99.3227 68.0074 99.5314 67.8631 99.7053 67.6818C100.07 67.3429 100.389 66.959 100.656 66.5393C100.815 66.3247 100.918 66.0738 100.954 65.8094C100.991 65.5451 100.961 65.2757 100.867 65.026C100.646 64.5468 100.215 64.2595 100.21 63.7491Z" fill="#9E5D45"/>
<path d="M101.594 62.8835C101.835 63.1353 102.014 63.4399 102.117 63.7731C102.219 64.0934 102.237 64.4344 102.171 64.7638C102.106 65.0918 101.959 65.3982 101.745 65.6549C101.529 65.9276 101.254 66.1479 100.941 66.2993C101.311 66.2517 101.655 66.0817 101.918 65.8164C102.192 65.5454 102.378 65.1976 102.451 64.819C102.514 64.442 102.466 64.0548 102.313 63.7047C102.168 63.3602 101.916 63.072 101.594 62.8835Z" fill="#9E5D45"/>
<path d="M103.251 60.9197C103.376 61.4067 103.444 61.9067 103.453 62.4094C103.461 62.9056 103.409 63.4009 103.298 63.8845C103.194 64.3709 103.032 64.8429 102.815 65.2903C102.599 65.7422 102.331 66.1674 102.017 66.5571C102.217 66.3962 102.404 66.2191 102.575 66.0277C102.74 65.8318 102.89 65.6238 103.024 65.4054C103.29 64.955 103.483 64.4654 103.596 63.9546C103.703 63.4428 103.73 62.9176 103.676 62.3977C103.626 61.8831 103.482 61.3822 103.251 60.9197Z" fill="#9E5D45"/>
<path d="M62.9443 51.601C62.4444 49.5682 61.5791 48.1872 60.4221 48.0992C59.2651 48.0112 58.6368 49.3412 58.5109 50.6675C58.3851 51.9939 58.2048 53.03 57.9839 54.281C57.6901 55.6282 57.8487 57.0346 58.4351 58.2822C59.1348 59.9044 59.1041 60.8041 60.0382 61.6334C60.9722 62.4627 62.649 61.2543 62.649 61.2543C63.3395 58.414 63.293 53.0331 62.9443 51.601Z" fill="#FDCB94"/>
<path style="mix-blend-mode:darken" d="M58.8731 51.9257C59.2996 50.6266 59.483 50.0137 59.8282 49.8414C60.1734 49.6691 60.619 50.0176 60.9584 51.1189C61.2977 52.2202 61.7675 54.3727 61.7079 54.9156C61.6483 55.4585 61.3918 55.6542 60.9112 56.013C60.4306 56.3719 60.0257 56.7476 60.2832 57.8596C60.5408 58.9716 60.6485 59.5734 61.32 59.9939C60.4937 60.236 59.9455 59.5216 59.4898 58.1162C59.0341 56.7109 58.0089 54.5575 58.8731 51.9257Z" fill="url(#paint15_linear_2_17640)"/>
<path d="M59.4908 50.3837C59.4806 50.2999 59.4908 50.2148 59.5202 50.1356C59.5497 50.0565 59.5977 49.9855 59.6602 49.9287C59.7227 49.8719 59.7978 49.8309 59.8794 49.8091C59.9609 49.7873 60.0465 49.7854 60.129 49.8036C60.2937 49.8395 60.4474 49.9143 60.5773 50.0218C60.7071 50.1292 60.8094 50.2662 60.8756 50.4213C61.122 50.9931 61.3376 51.5776 61.5214 52.1724C61.7456 52.7732 61.8087 53.4223 61.7046 54.0552C61.6555 54.3752 61.5099 54.6727 61.2872 54.9077C61.0646 55.1427 60.7755 55.3042 60.4588 55.3704C60.7292 55.2529 60.9629 55.0644 61.1351 54.825C61.3072 54.5855 61.4115 54.3039 61.4368 54.01C61.4886 53.417 61.4043 52.8201 61.1904 52.2648C60.9997 51.695 60.8652 51.0836 60.6527 50.5306C60.6087 50.3994 60.5363 50.2796 60.4407 50.1796C60.345 50.0796 60.2285 50.002 60.0995 49.9523C60.0306 49.9307 59.9576 49.9253 59.8863 49.9365C59.815 49.9477 59.7473 49.9753 59.6883 50.0171C59.6294 50.0589 59.5809 50.1137 59.5467 50.1773C59.5124 50.2409 59.4933 50.3115 59.4908 50.3837Z" fill="#9E5D45"/>
<path d="M61.545 55.1284C61.4308 55.6411 60.8743 55.8711 60.5867 56.1899C60.4491 56.3595 60.3528 56.5587 60.3053 56.7719C60.2578 56.9851 60.2605 57.2063 60.313 57.4183C60.3859 57.8836 60.4844 58.3444 60.6082 58.7987C60.7104 59.2595 60.9546 59.6765 61.3064 59.9908C61.0792 59.8838 60.8758 59.7321 60.7086 59.5447C60.5414 59.3572 60.4136 59.1379 60.3331 58.8999C60.1492 58.4389 60.0226 57.9571 59.9561 57.4652C59.9036 57.203 59.9175 56.9317 59.9965 56.6762C60.0755 56.4207 60.217 56.1889 60.4083 56.0021C60.8186 55.6673 61.3276 55.5857 61.545 55.1284Z" fill="#9E5D45"/>
<path d="M60.6636 53.7547C60.3382 53.8802 60.0466 54.0799 59.8118 54.3379C59.5854 54.5858 59.4242 54.8863 59.3427 55.2121C59.2645 55.5381 59.2668 55.8783 59.3494 56.2032C59.4303 56.5414 59.5855 56.8573 59.8038 57.1279C59.4905 56.9242 59.252 56.6238 59.1246 56.2723C58.9927 55.9103 58.9722 55.517 59.0657 55.1432C59.1698 54.775 59.3788 54.4451 59.6671 54.1937C59.9421 53.9419 60.2923 53.7876 60.6636 53.7547Z" fill="#9E5D45"/>
<path d="M59.9978 51.2841C59.6767 51.6715 59.4018 52.0951 59.1789 52.5463C58.9606 52.9932 58.7973 53.465 58.6926 53.9513C58.5819 54.4348 58.5285 54.9296 58.5338 55.4256C58.5387 55.9263 58.6008 56.4249 58.7189 56.9115C58.6073 56.6798 58.5148 56.4393 58.4424 56.1925C58.3748 55.945 58.326 55.6926 58.2965 55.4377C58.2482 54.9159 58.2826 54.3897 58.3984 53.8785C58.5158 53.3691 58.7134 52.8816 58.9836 52.4342C59.2483 51.9918 59.5921 51.602 59.9978 51.2841Z" fill="#9E5D45"/>
<path d="M102.012 37.2364C103.021 38.8937 103.676 40.7415 103.938 42.6642C104.199 44.5869 104.061 46.543 103.533 48.4102C101.743 54.8232 98.6119 65.6397 97.1633 68.4808C95.086 72.5399 86.6399 78.1165 76.3792 79.4604L76.2225 79.4833C76.1757 79.4564 76.1305 79.427 76.0869 79.3953C67.3459 73.8364 62.0457 65.2264 61.8741 60.6663C61.7567 57.4835 63.492 46.356 64.5732 39.7853C64.8798 37.8685 65.5787 36.0356 66.6259 34.4014C67.6731 32.7671 69.0461 31.3667 70.6591 30.2879C78.5035 25.1118 86.2155 26.1689 87.7907 26.4692L88.083 26.5343C89.644 26.9471 97.0858 29.2333 102.012 37.2364Z" fill="#FFDBB4"/>
<path d="M77.0684 50.7529C76.7739 52.9013 75.5986 54.4995 74.4462 54.3258C73.2939 54.1522 72.6013 52.2715 72.8958 50.1231C73.1903 47.9748 74.3698 46.3739 75.5221 46.5475C76.6745 46.7212 77.3633 48.6191 77.0684 50.7529Z" fill="white"/>
<path d="M76.3448 51.5055C76.1482 52.9389 75.3232 54.0011 74.5056 53.8803C73.6879 53.7596 73.1848 52.5026 73.3845 51.0555C73.5842 49.6083 74.406 48.5598 75.2236 48.6806C76.0413 48.8013 76.5456 50.0694 76.3448 51.5055Z" fill="black"/>
<path d="M75.0543 50.0405C74.9906 50.4886 74.7221 50.8189 74.4501 50.7763C74.178 50.7338 74.009 50.3422 74.0727 49.8941C74.1364 49.446 74.4015 49.115 74.6743 49.1541C74.9471 49.1932 75.1138 49.5951 75.0543 50.0405Z" fill="white"/>
<path d="M75.3875 51.1368C75.3277 51.4052 75.1515 51.5971 74.9864 51.5604C74.8214 51.5236 74.7389 51.2777 74.7953 51.0085C74.8517 50.7394 75.0348 50.549 75.1965 50.585C75.3581 50.621 75.4473 50.8684 75.3875 51.1368Z" fill="white"/>
<path d="M87.5638 52.7298C86.922 54.8008 87.3077 56.7467 88.4248 57.0787C89.5418 57.4106 90.9681 55.9983 91.6099 53.9273C92.2517 51.8564 91.8694 49.9112 90.7523 49.5792C89.6352 49.2473 88.206 50.6734 87.5638 52.7298Z" fill="white"/>
<path d="M87.8993 53.7183C87.4723 55.1003 87.7649 56.4115 88.5565 56.6493C89.3481 56.887 90.3406 55.9632 90.7707 54.5674C91.2008 53.1716 90.9086 51.8749 90.1136 51.6364C89.3185 51.3979 88.3305 52.3335 87.8993 53.7183Z" fill="black"/>
<path d="M89.693 52.9405C89.5605 53.3733 89.6635 53.7863 89.9278 53.8632C90.1922 53.9402 90.5122 53.6539 90.6439 53.2245C90.7757 52.7952 90.6735 52.3788 90.4134 52.2992C90.1532 52.2195 89.8282 52.5119 89.693 52.9405Z" fill="white"/>
<path d="M88.9122 53.7886C88.8524 54.057 88.9341 54.3064 89.0957 54.3424C89.2573 54.3784 89.4431 54.1922 89.5029 53.9238C89.5627 53.6554 89.4845 53.4069 89.3195 53.3701C89.1544 53.3333 88.972 53.5202 88.9122 53.7886Z" fill="white"/>
<path d="M102.109 54.6084C101.68 57.7164 98.5457 61.2872 96.0035 63.5127C94.9146 64.48 93.2051 64.9118 91.7383 65.3399C91.7258 66.287 91.8665 67.2754 91.7679 67.9288C91.5643 70.0902 91.293 71.8429 90.0866 73.6942C89.7527 74.1724 89.6192 74.1716 89.1223 74.5231C89.4467 73.4072 89.5765 72.3706 88.6651 71.3261C87.9065 70.3083 86.8837 69.1487 86.1859 68.1011C85.5671 67.6382 84.6656 67.2135 84.1268 66.6673C83.4136 65.8185 82.4078 65.8292 81.565 65.125C80.8134 64.5783 80.0179 63.2887 79.7366 62.818C79.3584 63.2357 79.2065 63.5775 78.8947 63.6814C77.5999 64.4548 75.7773 64.3088 74.1902 64.078C73.485 64.246 72.8514 64.9355 72.1306 65.0928C71.5909 65.3121 71.1975 65.0691 70.6372 65.2188C69.3504 66.1348 67.4679 66.4847 66.969 67.9952C66.8101 68.4005 66.6435 68.9051 66.4939 69.3016C65.9756 68.3879 65.9914 66.9721 66.0531 65.6748C66.292 63.7468 66.986 61.9033 68.0777 60.2965C68.1005 59.8863 67.2994 59.6753 67.0244 59.3865C64.7933 57.6073 64.1243 55.1504 64.0648 52.7282C64.0322 50.72 63.3905 48.0597 63.3483 48.2815C62.1099 50.3361 61.3646 52.6501 61.171 55.0415C60.9734 55.7667 60.6703 56.4143 60.4926 56.9851C60.3033 57.6771 60.2713 58.4026 60.3988 59.1085C60.5264 59.8144 60.8103 60.4827 61.2297 61.0644C60.866 62.5834 61.1424 64.6964 61.8946 66.6987C62.5316 68.1795 63.4192 69.5391 64.5182 70.7179C64.8343 70.5138 64.51 69.7987 64.759 69.5074C64.9062 69.2838 65.1101 68.968 65.286 68.7616C65.0691 70.2045 65.1617 71.6769 65.5577 73.081C65.9537 74.4851 66.6441 75.7886 67.5827 76.9048C67.8613 77.1556 68.1855 77.3504 68.5376 77.4787C68.4274 79.4478 69.6104 80.6828 70.7747 82.3905C72.1314 84.4011 73.1622 86.935 73.9922 89.1063C74.3793 88.5719 74.8162 88.0755 75.2969 87.6236C76.4119 86.5068 76.5913 86.3011 78.045 85.4945C78.817 85.0763 79.5621 84.6103 80.276 84.099C82.3415 82.7822 82.5883 82.1437 83.134 81.6224C83.3517 81.6493 83.5298 81.66 83.7541 81.6739C84.3263 81.4221 85.188 80.8917 85.436 80.8314C87.7135 79.049 88.6178 78.6509 89.9151 76.3106C90.0559 76.0999 90.5058 75.2792 90.5808 75.137C90.8036 75.7573 90.3287 76.0741 90.4854 76.6832C90.89 76.795 91.9654 76.0016 92.2903 75.8718C94.6971 74.3023 95.8237 72.9714 96.6787 70.4459C96.8813 69.812 97.135 69.2076 97.3127 68.5718C97.3974 68.7748 98.3435 67.7359 98.7635 67.6164C100.18 66.6355 100.158 65.1462 100.329 63.5877C100.404 62.9905 100.365 62.953 100.817 62.4795C101.306 61.6492 101.349 60.5465 101.608 59.6434C101.529 58.1813 101.006 57.2917 101.288 55.8484C101.381 55.5116 102.384 53.7776 102.109 54.6084Z" fill="black"/>
<path d="M73.8412 63.4406C73.8412 63.4406 71.1718 68.4729 74.6344 69.2443C78.097 70.0157 77.6476 67.8208 77.6476 67.8208L80.5326 68.4635C80.5326 68.4635 79.6111 70.4938 81.6284 70.8024C83.6458 71.1109 84.9125 69.9773 85.5637 65.2394C85.5021 64.9006 80.2871 61.7561 80.2871 61.7561L73.8412 63.4406Z" fill="#FFDBB4"/>
<path d="M74.4681 57.4836C72.575 57.0872 70.5461 57.4298 69.3358 58.7963C67.8659 60.4047 66.3353 62.3499 65.9747 64.4546C65.6341 65.7729 66.1455 68.4186 66.3761 69.781C66.6847 70.0159 66.8435 68.6716 66.9873 68.5122C67.4339 67.5282 67.1755 67.0517 68.3988 66.8258C68.8726 66.638 69.322 66.3937 69.7374 66.0983C70.8884 65.5168 70.8429 65.4452 70.9897 65.3371C71.392 65.4592 72.2994 65.1449 72.6904 64.9936C73.7828 64.4966 73.2432 64.5533 74.3241 64.1404C75.1625 64.2031 76.0041 64.2132 76.8438 64.1708C78.2145 63.9958 79.1674 63.6555 79.9816 62.6089C80.2744 64.0972 82.1899 65.3329 83.5413 66.071C83.9922 66.3924 84.4005 66.7698 84.7565 67.194C85.4398 67.7074 86.0846 68.4578 86.2915 68.2583C86.701 68.931 86.6 69.2877 87.516 70.2467C88.1018 70.8575 88.8505 71.725 88.7844 71.5838C89.0718 72.1571 88.787 72.2851 88.9499 73.3688C89.0295 74.275 89.0357 75.349 89.3301 75.0643C90.5046 73.0325 91.8145 71.2837 92.0376 67.3172C92.1293 66.111 91.894 64.9025 91.3566 63.8192C90.8191 62.7358 89.9995 61.8177 88.9841 61.1616C86.8596 59.9082 84.242 60.0258 81.9139 60.4967C80.4773 60.7726 79.09 60.0013 78.0508 59.1089C76.9823 58.3242 75.7622 57.7707 74.4681 57.4836Z" fill="black"/>
<path d="M95.0912 46.8221C94.8299 46.4729 94.5157 46.1665 94.1601 45.914C93.8301 45.678 92.7141 45.4871 91.4627 45.4179C91.2365 45.4289 91.0119 45.433 90.7841 45.4509C89.9148 45.4837 89.0502 45.5957 88.2012 45.7856C87.8633 45.8765 87.5331 45.998 87.1964 46.0674C87.1404 46.3186 87.0988 46.8294 87.0968 46.9518L87.0647 46.9013C87.0163 46.7858 86.9562 46.6756 86.8854 46.5724C86.8627 46.788 86.8764 47.006 86.9258 47.2171C87.0645 47.3792 87.2208 47.5255 87.3917 47.6531C89.1728 47.0458 91.0821 46.608 92.9893 47.1521C94.1087 47.4737 94.9479 47.8376 95.6375 48.6305L95.7327 48.5758C95.7861 48.0604 95.4026 47.3357 95.0912 46.8221Z" fill="#583415"/>
<g style="mix-blend-mode:multiply">
<g style="mix-blend-mode:multiply">
<path d="M95.7342 48.5365C94.3837 46.9354 92.4658 46.0675 90.4281 46.336C89.4099 46.5262 88.4056 46.7852 87.4222 47.111C87.2452 47.1608 87.0556 47.1393 86.8942 47.0512C86.9009 47.1071 86.9114 47.1626 86.9258 47.2171C87.0648 47.3782 87.2214 47.5233 87.3925 47.6497C89.1735 47.0424 91.0829 46.6046 92.99 47.1486C94.1094 47.4702 94.9487 47.8342 95.6382 48.6271L95.7334 48.5724C95.7349 48.5605 95.7351 48.5484 95.7342 48.5365Z" fill="#583415"/>
</g>
</g>
<path d="M72.6787 42.0568C73.0599 41.8456 73.471 41.6936 73.8979 41.6061C74.2984 41.5256 75.3903 41.8086 76.565 42.2545C76.7667 42.3536 76.9719 42.4534 77.1686 42.5587C77.9502 42.9418 78.6946 43.3966 79.3923 43.9172C79.662 44.1326 79.9105 44.3938 80.1966 44.584C80.1414 44.8317 79.9718 45.3176 79.9259 45.4266C79.942 45.4179 79.9574 45.408 79.9722 45.3972C80.065 45.3118 80.1655 45.235 80.2723 45.1679C80.2074 45.3748 80.1067 45.5687 79.975 45.7409C79.7805 45.8379 79.5761 45.9135 79.3653 45.9663C77.9872 44.6841 76.4236 43.5051 74.4601 43.2302C73.3054 43.0669 72.3906 43.0581 71.437 43.4994L71.3732 43.413C71.5444 42.8877 72.1985 42.3977 72.6787 42.0568Z" fill="#583415"/>
<g style="mix-blend-mode:multiply">
<g style="mix-blend-mode:multiply">
<path d="M71.3877 43.3476C72.2786 42.8819 73.2733 42.6512 74.278 42.6772C75.2826 42.7032 76.264 42.9851 77.1293 43.4962C78.0223 44.0563 78.7467 44.7739 79.5594 45.4353C79.702 45.5501 79.8825 45.6071 80.0652 45.5949C80.0365 45.6427 80.0017 45.6855 79.9696 45.7325C79.7754 45.8226 79.5723 45.8923 79.3638 45.9407C77.9856 44.6585 76.422 43.4795 74.4585 43.2046C73.3039 43.0413 72.3891 43.0325 71.4354 43.4738L71.3717 43.3873C71.3717 43.3873 71.3831 43.3682 71.3877 43.3476Z" fill="#583415"/>
</g>
</g>
<path d="M83.8796 57.4241C83.8796 57.4241 83.6281 60.9509 80.6225 60.2019C79.9119 60.0219 79.1863 59.8603 78.8337 59.2074C78.601 58.7841 78.4769 58.3096 78.4724 57.8264C78.4679 57.3433 78.5832 56.8665 78.808 56.4388C78.4092 56.8205 78.1533 57.3277 78.0832 57.8754C78.0131 58.4232 78.1329 58.9783 78.4228 59.4482C78.8613 60.2176 79.7061 60.395 80.5367 60.5872C81.3673 60.7795 82.2036 60.9947 82.9495 60.4819C83.7794 59.9155 84.1368 58.5541 83.8796 57.4241Z" fill="#784421"/>
<path d="M87.3259 11.4313C87.3259 11.4313 87.1662 11.468 86.9001 11.5604C86.7433 11.6183 86.5905 11.6868 86.4429 11.7656C86.248 11.8631 86.0604 11.9746 85.8814 12.0992C85.6667 12.2402 85.4611 12.3946 85.2659 12.5616C85.0541 12.7446 84.8546 12.9415 84.669 13.151C84.4749 13.3818 84.2994 13.6278 84.1442 13.8864C83.9921 14.1535 83.8687 14.4359 83.7761 14.729C83.6856 15.0182 83.6276 15.3166 83.6032 15.6187C83.5955 15.9109 83.6225 16.203 83.6836 16.4889L83.7769 16.8962C83.8128 17.027 83.8799 17.1467 83.9249 17.2687L84.0749 17.6163C84.1298 17.726 84.2016 17.8251 84.2596 17.9211C84.386 18.1154 84.4821 18.2993 84.6013 18.4451L84.9151 18.8183L85.203 19.1461L84.6681 19.6193L84.3909 19.2433L84.079 18.8127C83.9645 18.6463 83.8684 18.4299 83.7439 18.2107C83.6863 18.0968 83.6176 17.9839 83.5623 17.8596L83.4224 17.4673C83.3694 17.3274 83.3241 17.1846 83.2866 17.0398C83.2588 16.8891 83.236 16.7323 83.2097 16.5748C83.1666 16.2489 83.1602 15.9191 83.1905 15.5918C83.2411 15.2593 83.3281 14.9335 83.4502 14.6203C83.5706 14.311 83.7247 14.0158 83.9097 13.7403C84.0933 13.48 84.2987 13.2358 84.5235 13.0102C84.7294 12.8032 84.9496 12.6109 85.1822 12.4346C85.3942 12.2779 85.6154 12.1342 85.8448 12.0043C86.0351 11.8929 86.2321 11.7932 86.4346 11.7059C86.5912 11.6393 86.7511 11.5809 86.9138 11.531C87.1523 11.4649 87.3259 11.4313 87.3259 11.4313Z" fill="#251F12"/>
<path d="M91.6271 12.4401L92.0831 12.6609C92.2302 12.7297 92.4056 12.8338 92.592 12.9367C92.7784 13.0396 92.988 13.1839 93.2252 13.3342C93.4567 13.4978 93.6773 13.676 93.8859 13.8679C94.1109 14.0687 94.3139 14.2931 94.4911 14.5372C94.5713 14.6634 94.6652 14.7927 94.7369 14.9243L94.9216 15.3266C95.0108 15.6024 95.0527 15.8914 95.0453 16.1812C95.0505 16.3237 95.0345 16.4662 94.9979 16.6041C94.9851 16.7427 94.9547 16.8791 94.9075 17.0101C94.819 17.2699 94.6973 17.5171 94.5452 17.7456C94.4094 17.9666 94.2521 18.1735 94.0755 18.3633C93.9319 18.5523 93.772 18.7281 93.5975 18.8889C93.427 19.0387 93.2939 19.1824 93.1433 19.3078L92.7629 19.6059L92.4268 19.8669L91.9154 19.4568L92.2564 19.2222L92.6529 18.9493C92.8093 18.8469 92.9518 18.7089 93.1262 18.5744C93.3106 18.4319 93.4833 18.2747 93.6424 18.1043C93.8226 17.9299 93.9859 17.739 94.1304 17.534C94.2914 17.3303 94.425 17.1062 94.5278 16.8677C94.5871 16.7525 94.6302 16.6296 94.656 16.5026C94.7029 16.3814 94.7313 16.2538 94.7403 16.1241C94.7661 15.8592 94.7489 15.5919 94.6893 15.3326L94.5493 14.9402C94.4905 14.8152 94.4097 14.6924 94.3467 14.57C94.1925 14.3293 94.0121 14.1062 93.8091 13.9049C93.6196 13.7126 93.4189 13.5316 93.208 13.3629C92.993 13.2103 92.8021 13.063 92.618 12.9497C92.4339 12.8365 92.273 12.732 92.131 12.657L91.6271 12.4401Z" fill="#251F12"/>
<path d="M101.645 38.4946C102.406 39.9391 98.5507 44.7071 100.057 51.6521C100.979 55.9061 97.906 56.074 98.4614 62.5723C98.4614 62.5723 102.84 58.1952 105.353 52.3442C110.479 40.4154 108.207 38.5082 106.432 36.4477C104.976 34.7545 101.645 38.4946 101.645 38.4946Z" fill="black"/>
<path d="M70.4993 31.5561C69.1971 32.5409 70.6643 38.4948 66.3525 44.1436C63.7121 47.6041 66.4264 49.0612 63.1616 54.7085C63.1616 54.7085 61.0585 48.8875 61.2638 42.5225C61.6894 29.5466 64.552 28.7829 67.0338 27.6708C69.0711 26.7558 70.4993 31.5561 70.4993 31.5561Z" fill="black"/>
<path d="M84.783 20.8367C83.2073 18.9832 83.0163 11.4645 88.4181 11.6963C93.8199 11.9281 95.6381 16.4686 91.8261 22.2071C88.014 27.9456 84.783 20.8367 84.783 20.8367Z" fill="black"/>
<path d="M85.6546 36.9006C76.0921 34.7703 77.0718 31.4094 72.6521 31.5806C71.1962 31.6355 70.9215 32.0907 70.2549 31.8592C69.4124 31.5387 68.6559 31.0267 68.0451 30.3635C67.4343 29.7003 66.986 28.9041 66.7355 28.0377C66.0945 25.4064 73.6252 15.2883 89.6973 18.7531L85.6546 36.9006Z" fill="black"/>
<path d="M85.6546 36.9006C95.2171 39.0309 95.7567 35.5719 99.6892 37.6037C100.984 38.2714 101.036 38.7995 101.741 38.8736C103.474 39.0501 105.224 37.9339 106.547 36.9066C108.838 35.1272 106.276 21.6772 89.6973 18.7532L85.6546 36.9006Z" fill="black"/>
<path d="M84.9487 35.9379L84.8101 35.7987C84.6784 35.6663 84.5687 35.5139 84.4849 35.347C84.3495 35.0884 84.2318 34.8208 84.1326 34.5462C84.0028 34.1929 83.899 33.8306 83.822 33.4621C83.7168 33.0595 83.6506 32.6113 83.5874 32.1494C83.5238 31.6555 83.4851 31.1586 83.4715 30.6608C83.4501 30.1301 83.4565 29.5987 83.4906 29.0687C83.5108 28.5242 83.5968 27.9763 83.6537 27.4292C83.7106 26.8821 83.8318 26.3384 83.9773 25.8146C84.0981 25.2959 84.247 24.7841 84.4235 24.2816C84.5763 23.8093 84.7576 23.3467 84.9666 22.8965C85.1668 22.4679 85.3348 22.0539 85.5479 21.6969C85.761 21.3398 85.9354 21.0103 86.1011 20.7366C86.2667 20.4629 86.4606 20.2244 86.5983 20.0275C86.8798 19.6387 87.0405 19.4037 87.0405 19.4037C87.0405 19.4037 86.9142 19.6464 86.69 20.0696C86.5748 20.2787 86.4394 20.5303 86.281 20.82C86.1226 21.1098 85.9936 21.4783 85.8214 21.83C85.6355 22.2248 85.4718 22.6296 85.3311 23.0427C85.1524 23.4724 85.0217 23.9453 84.8716 24.4247C84.7215 24.9041 84.6107 25.4176 84.4786 25.9299C84.3464 26.4422 84.2864 26.9706 84.1813 27.507C84.0763 28.0434 84.0339 28.5577 84.0068 29.1006C83.9797 29.6436 83.9281 30.1666 83.9423 30.6537C83.9565 31.1409 83.9634 31.6444 83.9795 32.1067C83.9957 32.569 84.0462 33.0064 84.1239 33.4029C84.2038 34.0544 84.3579 34.6946 84.5831 35.3111C84.6451 35.4819 84.7306 35.6432 84.8373 35.7903L84.9487 35.9379Z" fill="#55463F"/>
<path d="M85.7251 25.8428C85.7251 25.8428 85.6101 26.359 85.4786 27.1278C85.3127 28.0593 85.2044 29.0001 85.1542 29.9449C85.1023 30.8845 85.1204 31.8265 85.2084 32.7633C85.2414 33.1499 85.2736 33.4749 85.3136 33.7005C85.3536 33.9261 85.3539 34.0706 85.3539 34.0706C85.3539 34.0706 85.2971 33.9532 85.2113 33.7391C85.0878 33.4435 84.9854 33.1394 84.905 32.8293C84.8427 32.6239 84.7953 32.4141 84.7632 32.2018C84.7137 31.9665 84.6787 31.7283 84.6587 31.4887C84.6036 30.9701 84.5908 30.4478 84.6203 29.9271C84.6715 28.9527 84.8592 27.9903 85.1778 27.0681C85.3204 26.643 85.5036 26.2326 85.7251 25.8428Z" fill="#55463F"/>
<path d="M84.2134 19.117L84.099 19.2252C83.987 19.3218 83.8836 19.4281 83.79 19.5428C83.6397 19.7115 83.5039 19.8927 83.3842 20.0844C83.2247 20.2981 83.0932 20.5649 82.9172 20.8363C82.7413 21.1077 82.5905 21.4281 82.442 21.7706C82.2935 22.1132 82.135 22.4679 81.9831 22.8422C81.8311 23.2165 81.7021 23.6175 81.5498 24.0098C81.3974 24.402 81.2817 24.8241 81.1874 25.2473C81.0932 25.6706 80.9694 26.08 80.8912 26.496C80.813 26.912 80.7501 27.3241 80.6826 27.7244C80.6151 28.1247 80.6002 28.5151 80.5541 28.8841C80.508 29.253 80.5315 29.6014 80.5194 29.9309C80.5074 30.2605 80.5396 30.5531 80.5463 30.8146C80.5541 31.0439 80.5743 31.2726 80.6066 31.4998L80.6639 32.1013L80.5046 31.5204C80.4398 31.2966 80.388 31.0692 80.3496 30.8394C80.3077 30.5736 80.2521 30.2723 80.2206 29.9438C80.1891 29.6154 80.1832 29.2529 80.1674 28.8701C80.1516 28.4874 80.1722 28.0875 80.2137 27.6742C80.2553 27.2608 80.2869 26.8273 80.3854 26.4014C80.4839 25.9755 80.5529 25.5358 80.6736 25.1076C80.7942 24.6794 80.9382 24.26 81.0669 23.8444C81.1956 23.4288 81.3742 23.0316 81.5552 22.6566C81.7163 22.2905 81.8993 21.9345 82.1032 21.5904C82.2795 21.2686 82.4903 20.9543 82.667 20.6795C82.9685 20.2348 83.3232 19.8286 83.7232 19.4701C83.8336 19.3628 83.9563 19.2689 84.0887 19.1904L84.2134 19.117Z" fill="#55463F"/>
<path d="M79.4534 33.9878C79.3411 33.8678 79.2354 33.7418 79.1368 33.6103C78.8736 33.2572 78.6447 32.8796 78.4532 32.4829C78.179 31.9219 77.959 31.3359 77.7964 30.733C77.6098 30.0416 77.4932 29.3332 77.4481 28.6184C77.4018 27.9004 77.4234 27.1797 77.5127 26.4658C77.5523 26.1397 77.6087 25.816 77.6818 25.4958C77.75 25.1895 77.8144 24.9005 77.8975 24.6409C78.0207 24.2205 78.1727 23.8091 78.3523 23.4095L78.557 22.9603C78.557 22.9603 78.5179 23.1358 78.4497 23.4421C78.3815 23.7483 78.2842 24.1853 78.1891 24.7095C78.1308 24.971 78.1099 25.2589 78.0647 25.5594C78.0194 25.8599 78.0165 26.1807 77.9762 26.5076C77.9319 27.1948 77.9338 27.8843 77.982 28.5712C77.9913 28.9344 78.0393 29.2702 78.0814 29.6154C78.1236 29.9607 78.1791 30.2945 78.2523 30.6142C78.3677 31.2057 78.5264 31.7878 78.7269 32.356C78.8668 32.7633 79.0311 33.1617 79.219 33.5492L79.4534 33.9878Z" fill="#55463F"/>
<path d="M78.2482 20.2152C78.2482 20.2152 78.1659 20.3739 78.0236 20.6564C77.8812 20.9389 77.6942 21.3414 77.4707 21.8262C77.2472 22.3109 77.0168 22.8916 76.7978 23.5182C76.6749 23.8268 76.5971 24.1598 76.4807 24.4878C76.3643 24.8158 76.2896 25.1675 76.2095 25.5109C76.1294 25.8542 76.0562 26.199 76.007 26.5493C75.9579 26.8995 75.8954 27.2287 75.8875 27.5556C75.8568 27.8717 75.8427 28.1892 75.8452 28.5069C75.8376 28.7912 75.8478 29.0757 75.8756 29.3588C75.9114 29.6196 75.9295 29.862 75.9458 30.0968C75.9621 30.3315 76.0235 30.4933 76.0548 30.6447L76.1442 31.1342L75.9539 30.6764L75.7486 30.1395C75.6952 29.9254 75.6301 29.6833 75.5745 29.4145C75.5147 29.1255 75.4738 28.8328 75.4521 28.5385C75.4098 28.2099 75.3967 27.8783 75.4129 27.5474C75.4173 27.1909 75.4448 26.8351 75.495 26.4822C75.5236 26.1274 75.6247 25.7706 75.6872 25.409C75.8539 24.713 76.078 24.0321 76.3573 23.3732C76.6011 22.8029 76.8813 22.2488 77.196 21.7144C77.5004 21.1837 77.8526 20.6818 78.2482 20.2152Z" fill="#55463F"/>
<path d="M73.6208 24.154C73.4972 24.5395 73.4022 24.9336 73.3365 25.3331C73.264 25.7329 73.2138 26.1366 73.1863 26.542C73.155 27.0021 73.162 27.4639 73.2071 27.9227C73.2219 28.1543 73.25 28.3849 73.2914 28.6133C73.3272 28.8416 73.3859 29.0641 73.4316 29.2802C73.4773 29.4962 73.5552 29.6978 73.6089 29.8939C73.6627 30.0901 73.7385 30.284 73.8049 30.4396C73.8713 30.5953 73.9125 30.767 73.9808 30.8978C74.0491 31.0285 74.0975 31.1513 74.141 31.2477C74.228 31.4404 74.2738 31.559 74.2738 31.559C74.2738 31.559 74.1894 31.4679 74.0535 31.3004L73.8073 30.9963C73.7079 30.863 73.6186 30.7223 73.5401 30.5756C73.4303 30.4073 73.3345 30.2301 73.2538 30.046C73.1546 29.8418 73.0676 29.6318 72.9933 29.4173C72.9128 29.1868 72.8446 28.9522 72.7889 28.7144C72.7379 28.4677 72.7007 28.2182 72.6775 27.9673C72.6341 27.4757 72.6486 26.9807 72.7209 26.4925C72.785 26.0681 72.8946 25.6517 73.048 25.2507C73.1865 24.8601 73.3794 24.4909 73.6208 24.154Z" fill="#55463F"/>
<path d="M73.2756 20.9892C72.9508 21.416 72.6748 21.8778 72.4528 22.3661C72.2192 22.854 72.0289 23.3615 71.884 23.8827C71.7852 24.1641 71.7529 24.4711 71.669 24.7666C71.5851 25.0622 71.5746 25.3849 71.5338 25.6972C71.4931 26.0096 71.4799 26.3281 71.4793 26.6386C71.4787 26.9491 71.4713 27.258 71.4925 27.5517L71.5607 28.412C71.5976 28.6839 71.6375 28.942 71.671 29.1806C71.7234 29.6581 71.8378 30.052 71.8766 30.3315L71.9554 30.7717C71.9554 30.7717 71.8867 30.6264 71.7741 30.3701C71.613 30.0093 71.4775 29.6376 71.3687 29.2577C71.3027 29.0191 71.2227 28.7629 71.1781 28.4929C71.1336 28.2229 71.083 27.9155 71.0358 27.6089C70.9887 27.3022 70.9881 26.9806 70.9746 26.6526C70.961 26.3245 70.9987 25.9934 71.0115 25.6603C71.0803 25.0109 71.2228 24.3713 71.4362 23.7541C71.5327 23.4697 71.6499 23.1929 71.7868 22.9256C71.9048 22.6856 72.0385 22.4536 72.1869 22.231C72.4055 21.902 72.6552 21.5948 72.9326 21.3137C73.0386 21.197 73.1532 21.0885 73.2756 20.9892Z" fill="#55463F"/>
<path d="M68.4256 25.2143C68.3741 25.5376 68.3507 25.8647 68.3558 26.192C68.3502 26.5178 68.3706 26.8436 68.4167 27.1663C68.4369 27.3466 68.4669 27.5257 68.5065 27.7027C68.5343 27.8859 68.5995 28.0629 68.6452 28.2465C68.6909 28.43 68.7645 28.6017 68.8221 28.7807C68.8797 28.9597 68.9667 29.1199 69.035 29.2832C69.1987 29.6014 69.3449 29.9012 69.4991 30.1487C69.6533 30.3961 69.7785 30.6118 69.872 30.759C69.9655 30.9063 70.014 30.9965 70.014 30.9965C70.014 30.9965 69.9296 30.938 69.7952 30.8286C69.6018 30.6828 69.4204 30.5216 69.2529 30.3466C69.0127 30.0929 68.8001 29.8142 68.6188 29.5155C68.5272 29.3434 68.4287 29.1698 68.3428 28.9881C68.257 28.8065 68.196 28.5943 68.1288 28.4096C68.0617 28.2249 68.0164 28.0233 67.9963 27.8058C67.9639 27.6097 67.9466 27.4114 67.9443 27.2127C67.9317 26.8563 67.9674 26.4997 68.0505 26.1529C68.1237 25.8217 68.2505 25.5047 68.4256 25.2143Z" fill="#55463F"/>
<path d="M88.4842 21.4771L88.5292 21.6315C88.575 21.7781 88.6116 21.9274 88.6389 22.0785C88.7499 22.6158 88.8252 23.1599 88.8644 23.7071C88.9049 24.3843 88.9601 25.1731 88.9282 26.0291C88.9073 26.9177 88.8411 27.8047 88.7296 28.6865C88.6728 29.1361 88.5987 29.5819 88.5186 30.0227C88.4384 30.4635 88.3254 30.8898 88.2334 31.3028C88.0445 32.0556 87.8164 32.798 87.5502 33.5271C87.3573 34.0394 87.1383 34.5415 86.8939 35.0314L86.6054 35.5811C86.6054 35.5811 86.6743 35.3689 86.798 34.992C86.9217 34.615 87.0703 34.0775 87.2641 33.4344C87.3408 33.0903 87.4346 32.7501 87.5269 32.3842C87.6192 32.0183 87.6986 31.6134 87.7891 31.2074C87.9405 30.3815 88.1035 29.5041 88.2039 28.6163C88.3042 27.7285 88.4015 26.8545 88.4636 26.0087C88.5257 25.163 88.5606 24.3906 88.5698 23.7173C88.579 23.044 88.5775 22.4838 88.5411 22.0965C88.5046 21.7091 88.4842 21.4771 88.4842 21.4771Z" fill="#55463F"/>
<path d="M91.3282 19.8894L91.7947 20.517C91.9291 20.7239 92.0474 21.0031 92.2157 21.3331C92.3669 21.6962 92.495 22.0685 92.599 22.4479C92.7093 22.9 92.7915 23.3586 92.8452 23.821C92.9106 24.337 92.9371 24.8572 92.9245 25.3772C92.912 25.9308 92.8708 26.4834 92.8011 27.0328C92.7631 27.3168 92.7223 27.5967 92.6843 27.8808L92.4965 28.7238C92.3716 29.2847 92.1821 29.8276 92.025 30.3705C91.868 30.9133 91.659 31.4302 91.4245 31.9161C91.312 32.1619 91.2037 32.4051 91.0977 32.6379C90.9917 32.8707 90.8493 33.0882 90.7326 33.3042C90.5054 33.7411 90.2392 34.1261 90.0074 34.4862C89.7959 34.8102 89.564 35.1204 89.3132 35.415C89.1324 35.6537 88.9361 35.8803 88.7255 36.0931L88.1809 36.658L88.6437 36.0388C88.8287 35.8063 88.9977 35.5616 89.1498 35.3064C89.3303 35.0143 89.5556 34.6997 89.7511 34.3243C89.9466 33.9489 90.1915 33.5628 90.3801 33.1209C90.5688 32.679 90.7903 32.2191 90.9889 31.7324C91.1876 31.2457 91.3565 30.7308 91.5441 30.2127C91.7317 29.6947 91.8646 29.1465 91.9693 28.5955L92.1509 27.78C92.2115 27.5082 92.2412 27.2295 92.283 26.9607C92.3631 26.4276 92.4152 25.8907 92.4392 25.3522C92.4472 24.8303 92.4735 24.3233 92.4356 23.8453C92.4135 23.3954 92.3626 22.9474 92.2833 22.5039C92.1934 22.0975 92.0974 21.7185 92.007 21.395C91.9167 21.0715 91.7796 20.7954 91.6801 20.5782L91.3282 19.8894Z" fill="#55463F"/>
<path d="M90.4345 36.8458C90.7733 36.4675 91.0926 36.0721 91.3913 35.6613C91.6598 35.2985 91.9651 34.8681 92.2653 34.4113C92.5656 33.9545 92.8785 33.4247 93.1521 32.8933C93.3036 32.6345 93.423 32.3577 93.5573 32.0951C93.6916 31.8324 93.7949 31.5629 93.9132 31.3075C94.0314 31.0522 94.1145 30.7926 94.2152 30.5514C94.3159 30.3101 94.3886 30.0807 94.4652 29.8667C94.5418 29.6526 94.6179 29.4564 94.6681 29.2798C94.7183 29.1032 94.7722 28.9418 94.8067 28.8195C94.8848 28.566 94.9392 28.4192 94.9392 28.4192C94.9392 28.4192 94.9337 28.5733 94.9106 28.839C94.8833 29.2111 94.8334 29.5811 94.7612 29.947C94.7208 30.1931 94.6665 30.4366 94.5987 30.6765C94.5206 30.93 94.4593 31.2053 94.3552 31.4782C94.2511 31.7512 94.1626 32.0349 94.0286 32.312C93.8947 32.5892 93.7807 32.8744 93.6269 33.1435C93.3421 33.6805 93.0164 34.1948 92.6526 34.6818C92.3378 35.1114 91.9917 35.5172 91.617 35.8957C91.2561 36.2518 90.8599 36.5702 90.4345 36.8458Z" fill="#55463F"/>
<path d="M96.4305 21.8386L96.5388 21.9675C96.606 22.0547 96.7218 22.1672 96.8355 22.337C96.9637 22.5518 97.0806 22.7732 97.1858 23.0001C97.3159 23.2976 97.4174 23.6069 97.489 23.9236C97.5822 24.2948 97.6502 24.672 97.6923 25.0524C97.7457 25.4773 97.771 25.9052 97.7679 26.3333C97.7674 26.7908 97.7402 27.2478 97.6867 27.7022C97.6481 28.1667 97.542 28.627 97.4695 29.0984C97.3969 29.5699 97.2633 30.0241 97.101 30.461C96.9711 30.8978 96.8142 31.326 96.6312 31.7433C96.4708 32.1382 96.2863 32.5229 96.0787 32.8951C95.9 33.2598 95.6713 33.5736 95.4987 33.8783C95.3247 34.1477 95.1356 34.407 94.9324 34.655C94.783 34.8522 94.6207 35.0393 94.4467 35.215L94.0004 35.679C94.0004 35.679 94.1332 35.4883 94.3638 35.1496C94.5113 34.9555 94.6449 34.7511 94.7635 34.538C94.9016 34.2907 95.0787 34.0303 95.2374 33.7226C95.3962 33.4149 95.5833 33.0773 95.7272 32.7229C95.8711 32.3685 96.0552 31.9797 96.1934 31.5699C96.3317 31.1601 96.4783 30.7449 96.6074 30.3113C96.7365 29.8778 96.8284 29.4324 96.9453 28.9889C97.0621 28.5454 97.1446 28.0942 97.1732 27.6419C97.2017 27.1896 97.2769 26.7549 97.2967 26.3259C97.3165 25.8969 97.3256 25.4836 97.3121 25.0905C97.3 24.7187 97.2619 24.3482 97.1982 23.9816C97.1493 23.6735 97.0835 23.3683 97.0012 23.0673C96.9276 22.7981 96.8205 22.5828 96.7514 22.3905C96.5503 22.0459 96.4305 21.8386 96.4305 21.8386Z" fill="#55463F"/>
<path d="M98.8237 26.6806C98.93 27.2259 98.994 27.7787 99.0149 28.3339C99.0389 28.9061 99.0222 29.4793 98.9648 30.0492C98.9385 30.3727 98.8957 30.6947 98.8365 31.0138C98.7885 31.3426 98.6908 31.6676 98.6173 31.9979C98.5437 32.3283 98.4124 32.6421 98.3059 32.9579C98.1995 33.2737 98.0473 33.5684 97.8981 33.8494C97.7521 34.1189 97.5904 34.3795 97.4137 34.63C97.2568 34.8526 97.0886 35.0671 96.9097 35.2726C96.7288 35.4526 96.5568 35.6093 96.4031 35.7484C96.2664 35.8602 96.1229 35.9633 95.9734 36.0572C95.7307 36.2234 95.5892 36.3075 95.5892 36.3075L95.908 35.9776C96.0343 35.8608 96.1536 35.7366 96.2652 35.6057C96.3841 35.4444 96.518 35.2648 96.6714 35.0786C96.8247 34.8925 96.9372 34.6466 97.0895 34.4169C97.2417 34.1872 97.3405 33.9058 97.4851 33.6455C97.6297 33.3851 97.7071 33.0701 97.833 32.7803C97.9589 32.4905 98.0337 32.1713 98.1137 31.8605C98.1938 31.5496 98.2857 31.2342 98.3245 30.9142C98.3633 30.5942 98.4626 30.2948 98.4941 29.9913C98.5923 29.3883 98.6511 28.8163 98.7026 28.3258C98.8057 27.3447 98.8237 26.6806 98.8237 26.6806Z" fill="#55463F"/>
<path d="M98.3519 36.9483C98.3519 36.9483 98.4945 36.8103 98.7247 36.5546C98.859 36.4008 98.9841 36.2394 99.0995 36.071C99.2304 35.8726 99.3795 35.6567 99.5261 35.404C99.8653 34.8346 100.165 34.2424 100.423 33.6317C100.72 32.9353 100.976 32.2215 101.187 31.4942C101.295 31.1245 101.392 30.7525 101.472 30.3802C101.551 30.0078 101.636 29.6438 101.655 29.2832C101.707 28.9399 101.739 28.5938 101.752 28.2467C101.774 27.9355 101.775 27.6232 101.755 27.3118C101.755 27.0193 101.697 26.7608 101.681 26.5226C101.667 26.3182 101.632 26.1158 101.578 25.9181L101.465 25.3873L101.679 25.8864C101.763 26.0787 101.83 26.2786 101.878 26.4833C101.964 26.7435 102.025 27.011 102.061 27.2825C102.11 27.6027 102.14 27.9254 102.152 28.2491C102.174 28.6088 102.167 28.9696 102.132 29.3282C102.071 30.1122 101.929 30.8879 101.71 31.6432C101.489 32.3949 101.206 33.1267 100.862 33.8307C100.557 34.4417 100.198 35.0241 99.7884 35.5708C99.6312 35.7935 99.4565 36.0034 99.2661 36.1984C99.1066 36.3796 98.9323 36.5141 98.808 36.6345C98.7047 36.72 98.5956 36.7983 98.4815 36.8688L98.3519 36.9483Z" fill="#55463F"/>
<path d="M103.5 27.7223C103.5 27.7223 103.558 27.8363 103.649 28.0408C103.7 28.1678 103.742 28.2978 103.776 28.4301C103.826 28.6026 103.861 28.7796 103.878 28.9586C103.933 29.4055 103.931 29.8578 103.871 30.3041C103.806 30.8134 103.694 31.3157 103.536 31.8044C103.231 32.7117 102.78 33.5628 102.199 34.3236C101.937 34.6674 101.634 34.9783 101.296 35.2493C101.296 35.2493 101.362 35.1339 101.485 34.9519C101.609 34.77 101.762 34.4863 101.941 34.1541C102.12 33.8219 102.316 33.4285 102.501 33.0004C102.687 32.5722 102.871 32.1039 103.029 31.6336C103.187 31.1746 103.316 30.7066 103.417 30.2321C103.468 30.005 103.496 29.7802 103.532 29.5714C103.568 29.3627 103.588 29.1577 103.586 28.973C103.604 28.6723 103.595 28.3706 103.56 28.0714C103.512 27.8477 103.5 27.7223 103.5 27.7223Z" fill="#55463F"/>
<path d="M101.385 37.6238C101.385 37.6238 101.835 37.4317 102.456 37.0897C102.809 36.898 103.151 36.6873 103.481 36.4584C103.666 36.3442 103.836 36.1764 104.011 36.0564C104.186 35.9364 104.347 35.7483 104.515 35.5943C104.672 35.4326 104.816 35.2596 104.948 35.0767C105.08 34.9043 105.196 34.7198 105.294 34.5255C105.398 34.3493 105.481 34.1618 105.542 33.9666C105.613 33.7953 105.664 33.6167 105.696 33.434C105.734 33.2654 105.773 33.09 105.801 32.9626C105.83 32.8353 105.818 32.6919 105.823 32.6063C105.837 32.3964 105.854 32.2736 105.854 32.2736C105.854 32.2736 105.886 32.3891 105.925 32.6002C105.945 32.7058 105.971 32.8342 105.996 32.9772C106.01 33.1461 106.013 33.3157 106.006 33.485C106.011 33.682 105.988 33.8787 105.937 34.0692C105.914 34.1759 105.889 34.286 105.861 34.4133C105.832 34.5406 105.773 34.6286 105.726 34.7444C105.636 34.9725 105.52 35.1891 105.38 35.3897C105.235 35.5963 105.077 35.7927 104.906 35.9776C104.726 36.1526 104.538 36.318 104.341 36.4729C104.15 36.6185 103.949 36.7511 103.74 36.8699C103.373 37.0804 102.987 37.2532 102.585 37.3857C102.195 37.5103 101.793 37.5902 101.385 37.6238Z" fill="#55463F"/>
<path d="M88.6215 12.8251C88.6215 12.8251 88.5404 12.8973 88.3905 13.0193C88.3351 13.09 88.2732 13.1737 88.2013 13.2696C88.1294 13.3656 88.0823 13.496 88.0268 13.6317C87.906 13.9404 87.8154 14.2601 87.7564 14.5863C87.6846 14.9623 87.6361 15.3423 87.6111 15.7242C87.5844 16.1097 87.5778 16.4964 87.5913 16.8827C87.6011 17.2225 87.6291 17.5615 87.6754 17.8983C87.7127 18.1439 87.7699 18.3861 87.8461 18.6225L87.9617 18.8975C87.9617 18.8975 87.88 18.8107 87.751 18.6447C87.6024 18.415 87.4778 18.1706 87.3793 17.9154C87.2563 17.5732 87.1707 17.2187 87.124 16.8581C87.073 16.4577 87.0603 16.0533 87.0861 15.6505C87.1127 15.2527 87.1846 14.8591 87.3006 14.4776C87.3958 14.1358 87.546 13.8119 87.7452 13.5184C87.8313 13.3988 87.9264 13.2859 88.0297 13.1809L88.318 12.9561C88.5072 12.8683 88.6215 12.8251 88.6215 12.8251Z" fill="#55463F"/>
<path d="M89.8017 14.1534C89.8017 14.1534 89.8666 14.2185 89.9732 14.3397C90.0344 14.4104 90.0848 14.4898 90.1227 14.5753C90.1859 14.6766 90.2332 14.787 90.2628 14.9026C90.3073 15.0252 90.3358 15.1529 90.3477 15.2827C90.3692 15.4252 90.3758 15.5695 90.3673 15.7133C90.3596 16.0172 90.3178 16.3192 90.2425 16.6137C90.0972 17.1641 89.8695 17.6893 89.5671 18.1716C89.4271 18.3979 89.2672 18.6113 89.0893 18.8091C89.0893 18.8091 89.156 18.5098 89.279 18.0713C89.402 17.6327 89.5846 17.0558 89.7248 16.4912C89.7892 16.2021 89.8536 15.9131 89.9126 15.6481C89.9575 15.4011 89.9771 15.1501 89.9712 14.8991C89.9727 14.7982 89.965 14.6973 89.9481 14.5978C89.9424 14.5159 89.9224 14.4357 89.8891 14.3607C89.8387 14.2303 89.8017 14.1534 89.8017 14.1534Z" fill="#55463F"/>
<path d="M90.4498 12.864C90.4498 12.864 90.561 12.9321 90.7412 13.0626C90.9692 13.2512 91.1706 13.4698 91.34 13.7124C91.5543 14.0284 91.7204 14.3746 91.833 14.7396C91.8953 14.9358 91.9411 15.1369 91.9697 15.3407C91.9997 15.5454 92.0164 15.7518 92.0198 15.9586C92.0106 16.1619 91.9872 16.3642 91.9498 16.5642C91.9185 16.7578 91.8643 16.947 91.7882 17.1278C91.7242 17.3028 91.6432 17.471 91.5463 17.6301C91.4539 17.7735 91.3532 17.9115 91.2449 18.0433C91.0692 18.2419 90.87 18.4182 90.6516 18.5685C90.4922 18.6847 90.3962 18.7427 90.3962 18.7427C90.3962 18.7427 90.4555 18.6548 90.5691 18.5176C90.7214 18.3287 90.8569 18.1268 90.9742 17.9144C91.1275 17.6242 91.2489 17.3182 91.3362 17.0018C91.3894 16.8273 91.4292 16.649 91.455 16.4685C91.4826 16.2805 91.4983 16.091 91.5021 15.9011C91.5098 15.1706 91.3595 14.4471 91.0614 13.7804C90.9567 13.5412 90.8241 13.3153 90.6663 13.1073L90.4498 12.864Z" fill="#55463F"/>
<path d="M92.5619 14.4325C92.5619 14.4325 92.6459 14.509 92.7769 14.6501C92.9356 14.8479 93.0679 15.0656 93.1704 15.2976C93.45 15.9432 93.5417 16.6547 93.435 17.3502C93.3748 17.712 93.2542 18.0612 93.0785 18.3832C92.9997 18.5373 92.9011 18.6805 92.7851 18.809C92.686 18.9353 92.5754 19.0521 92.4548 19.158C92.3511 19.2525 92.2381 19.3363 92.1176 19.4079C92.0265 19.4725 91.9295 19.5283 91.8278 19.5745L91.5584 19.6987L91.7797 19.5313C91.8674 19.4766 91.9476 19.4107 92.0183 19.3352C92.1144 19.2479 92.2051 19.1547 92.2898 19.0562C92.389 18.9457 92.4784 18.8266 92.5567 18.7004C92.6449 18.5652 92.7213 18.4227 92.7852 18.2745C92.8517 18.1248 92.9088 17.971 92.9563 17.8142C93.0046 17.6458 93.0427 17.4745 93.0705 17.3015C93.1254 16.9564 93.1417 16.6063 93.1189 16.2577C93.095 16.0898 93.0993 15.9247 93.0612 15.7717C93.0413 15.6229 93.0075 15.4763 92.9602 15.3339C92.8998 15.1094 92.8137 14.8926 92.7035 14.688L92.5619 14.4325Z" fill="#55463F"/>
<path d="M86.7155 13.8632C86.7155 13.8632 86.6738 13.937 86.5923 14.0597C86.5778 14.125 86.5353 14.2022 86.4974 14.2913C86.4595 14.3804 86.4529 14.4909 86.4276 14.6045C86.3086 15.1743 86.2471 15.7547 86.2438 16.3368C86.2273 16.9269 86.2587 17.5173 86.3378 18.1022C86.3684 18.3009 86.414 18.497 86.4742 18.6888C86.5299 18.8276 86.5577 18.9133 86.5577 18.9133C86.5577 18.9133 86.4902 18.8441 86.3791 18.711C86.2459 18.5283 86.1336 18.3313 86.0443 18.1235C85.9283 17.8472 85.8449 17.5584 85.7958 17.2628C85.7365 16.9376 85.7097 16.6074 85.7158 16.277C85.723 15.9529 85.7646 15.6304 85.8399 15.315C85.902 15.0361 86.0009 14.7667 86.1339 14.5137C86.2374 14.3275 86.3689 14.1583 86.5236 14.0118C86.6356 13.914 86.7155 13.8632 86.7155 13.8632Z" fill="#55463F"/>
<path d="M86.6779 12.5257C86.4703 12.6667 86.2737 12.8234 86.0899 12.9943C85.9092 13.1588 85.7407 13.3361 85.5855 13.5248C85.4138 13.7308 85.2638 13.954 85.1376 14.1907C85.0101 14.4197 84.9099 14.6628 84.8391 14.9151C84.8122 15.0356 84.7862 15.1526 84.7624 15.2592C84.7398 15.3657 84.7266 15.474 84.7229 15.5827C84.7186 15.6829 84.6806 15.772 84.6974 15.8588C84.7142 15.9456 84.6989 16.0144 84.6996 16.076L84.6933 16.266C84.6933 16.266 84.6728 16.1964 84.6312 16.0752C84.5758 15.9091 84.539 15.7373 84.5215 15.5631C84.5061 15.4496 84.5014 15.3349 84.5076 15.2205C84.5042 15.0922 84.5159 14.9639 84.5422 14.8382C84.5597 14.7039 84.5892 14.5715 84.6304 14.4425C84.6785 14.3092 84.7363 14.1797 84.8034 14.0548C85.075 13.5679 85.4656 13.1579 85.9386 12.8631C86.1696 12.7194 86.4181 12.606 86.6779 12.5257Z" fill="#55463F"/>
<path d="M106.273 39.7206C106.273 39.7206 106.335 39.8644 106.434 40.1175C106.553 40.4802 106.64 40.8525 106.695 41.2303C106.837 42.3807 106.793 43.5464 106.565 44.6829C106.448 45.2873 106.295 45.8839 106.105 46.4695C105.941 46.9797 105.75 47.4809 105.533 47.9708C105.321 48.4461 105.081 48.909 104.816 49.357C104.816 49.357 104.85 49.2056 104.93 48.9452C105.009 48.6848 105.108 48.306 105.246 47.8671C105.383 47.4282 105.511 46.9006 105.654 46.3401C105.797 45.7796 105.933 45.1851 106.045 44.5852C106.268 43.4886 106.386 42.3732 106.397 41.2543C106.397 40.8879 106.377 40.5219 106.339 40.1576C106.29 39.8758 106.273 39.7206 106.273 39.7206Z" fill="#55463F"/>
<path d="M105.327 40.1635C105.327 40.1635 105.396 40.2728 105.51 40.4751C105.655 40.7609 105.773 41.0593 105.864 41.3665C106.121 42.3077 106.219 43.2855 106.154 44.2592C106.092 45.2235 105.918 46.1775 105.636 47.1018C105.504 47.52 105.347 47.9301 105.168 48.3302C105.168 48.3302 105.175 48.1983 105.207 47.9776C105.238 47.757 105.281 47.4309 105.335 47.0455C105.388 46.6601 105.434 46.2116 105.493 45.7337C105.553 45.2558 105.595 44.7449 105.617 44.2372C105.681 43.3039 105.663 42.3668 105.563 41.4368C105.528 41.1287 105.475 40.8228 105.406 40.5206C105.352 40.2919 105.327 40.1635 105.327 40.1635Z" fill="#55463F"/>
<path d="M103.806 40.3953C103.949 40.7415 104.065 41.0982 104.153 41.4622C104.335 42.2698 104.4 43.0992 104.348 43.9254C104.295 44.7426 104.172 45.5539 103.981 46.3502C103.835 47.0039 103.669 47.4256 103.669 47.4256C103.669 47.4256 103.662 47.3121 103.662 47.1171C103.662 46.9221 103.66 46.6399 103.676 46.3076C103.698 45.6442 103.767 44.7675 103.813 43.8965C103.867 43.1008 103.878 42.3029 103.847 41.506L103.817 40.7046C103.813 40.5123 103.806 40.3953 103.806 40.3953Z" fill="#55463F"/>
<path d="M105.015 43.7345C105.094 43.9586 105.15 44.1901 105.182 44.4255C105.248 44.9429 105.224 45.4678 105.111 45.9771C105 46.4786 104.834 46.9661 104.614 47.4302C104.509 47.6421 104.392 47.8476 104.264 48.0457C104.27 47.8083 104.289 47.5714 104.321 47.336C104.369 46.9243 104.482 46.3859 104.588 45.8606C104.694 45.3353 104.818 44.8283 104.878 44.412C104.923 44.209 104.961 44.0404 104.988 43.9199C105.015 43.7995 105.015 43.7345 105.015 43.7345Z" fill="#55463F"/>
<path d="M103.213 48.339C103.213 48.339 103.146 48.2698 103.044 48.1424C102.906 47.9558 102.786 47.7561 102.686 47.5462C102.402 46.9022 102.236 46.2119 102.198 45.5088C102.157 44.8147 102.21 44.1183 102.356 43.4384C102.424 43.1308 102.514 42.8286 102.626 42.5342C102.626 42.5342 102.637 42.6306 102.64 42.7938C102.644 42.9571 102.66 43.1919 102.659 43.4698C102.673 44.0254 102.687 44.7546 102.732 45.4761C102.767 46.1383 102.848 46.7972 102.975 47.448C103.017 47.6649 103.07 47.8794 103.135 48.0904C103.183 48.2636 103.213 48.339 103.213 48.339Z" fill="#55463F"/>
<path d="M102.75 48.4887C102.564 48.3065 102.411 48.0927 102.299 47.8572C102.054 47.3422 101.913 46.7843 101.882 46.2148C101.848 45.6521 101.897 45.0875 102.028 44.539C102.091 44.2911 102.174 44.0487 102.276 43.8142C102.288 43.8838 102.295 43.9542 102.297 44.0249C102.301 44.1556 102.33 44.3464 102.335 44.5678C102.358 45.0171 102.375 45.6025 102.413 46.178C102.441 46.7079 102.5 47.2358 102.588 47.7591C102.615 47.9349 102.65 48.1093 102.695 48.2814C102.717 48.3495 102.736 48.4187 102.75 48.4887Z" fill="#55463F"/>
<path d="M101.202 47.8224C101.049 47.6634 100.926 47.4768 100.841 47.2724C100.657 46.8285 100.568 46.351 100.58 45.8706C100.586 45.397 100.67 44.9277 100.828 44.4812C100.901 44.278 100.993 44.082 101.103 43.8959C101.111 43.9544 101.116 44.0134 101.117 44.0726C101.114 44.1838 101.136 44.3475 101.13 44.5341C101.136 44.8965 101.119 45.3947 101.113 45.8738C101.107 46.3529 101.112 46.8343 101.139 47.198C101.153 47.3815 101.162 47.5352 101.177 47.6434C101.19 47.7024 101.199 47.7622 101.202 47.8224Z" fill="#55463F"/>
<path d="M107.373 40.5867C107.421 40.6581 107.466 40.7321 107.507 40.8081C107.61 41.0172 107.693 41.2352 107.756 41.4594C107.928 42.1414 107.974 42.8493 107.89 43.5478C107.811 44.2389 107.639 44.9162 107.38 45.5615C107.261 45.8534 107.121 46.136 106.96 46.4072C106.96 46.4072 106.981 46.3142 106.99 46.1464C106.998 45.9785 107.037 45.7526 107.084 45.4777C107.167 44.929 107.28 44.2102 107.357 43.4907C107.433 42.8303 107.46 42.1653 107.44 41.5009C107.436 41.2803 107.421 41.0601 107.395 40.8409C107.373 40.6807 107.373 40.5867 107.373 40.5867Z" fill="#55463F"/>
<path d="M65.7884 30.7017C65.7884 30.7017 65.7081 30.8355 65.5566 31.0618C65.3643 31.374 65.1899 31.6969 65.0343 32.0289C64.571 33.0475 64.2045 34.1073 63.9394 35.1945C63.7793 35.7836 63.6734 36.3884 63.5485 36.9493C63.4235 37.5102 63.3475 38.0458 63.2704 38.5054C63.1932 38.965 63.1269 39.3439 63.0954 39.6149C63.0638 39.886 63.0233 40.0359 63.0233 40.0359C62.9734 39.5177 62.9532 38.9971 62.9627 38.4766C62.9739 37.9407 63.0136 37.4059 63.0815 36.8742C63.162 36.2641 63.2763 35.6589 63.424 35.0616C63.6997 33.9356 64.1547 32.8614 64.7716 31.8801C64.9824 31.5613 65.2206 31.2614 65.4837 30.9841C65.6714 30.8056 65.7884 30.7017 65.7884 30.7017Z" fill="#55463F"/>
<path d="M66.4473 31.5021C66.4473 31.5021 66.3697 31.6076 66.2187 31.7835C66.0275 32.0276 65.8502 32.2823 65.6878 32.5464C65.2037 33.3468 64.7894 34.1874 64.4495 35.0588C64.2547 35.5283 64.0894 36.0115 63.9267 36.4665C63.7639 36.9214 63.6348 37.355 63.5169 37.7224C63.399 38.0898 63.3052 38.3975 63.2339 38.62C63.1627 38.8425 63.1229 38.9565 63.1229 38.9565C63.1277 38.5178 63.1602 38.08 63.2201 37.6454C63.3538 36.6881 63.6015 35.7502 63.9579 34.8518C64.3107 33.9423 64.8135 33.0984 65.4452 32.3552C65.6587 32.1164 65.8925 31.8966 66.1438 31.6982C66.3483 31.574 66.4473 31.5021 66.4473 31.5021Z" fill="#55463F"/>
<path d="M67.7292 32.3583C67.7292 32.3583 67.6806 32.4631 67.5884 32.634L67.2203 33.3465C66.8556 34.0557 66.5273 34.783 66.2368 35.5256C65.9088 36.3338 65.6026 37.1577 65.337 37.7667C65.2107 38.0744 65.0863 38.3248 65.0063 38.5056C64.9263 38.6865 64.8723 38.7828 64.8723 38.7828C64.8723 38.7828 64.9147 38.3335 65.0466 37.6767C65.2079 36.8736 65.4412 36.0867 65.7436 35.3254C66.044 34.5538 66.4557 33.8302 66.9655 33.1778C67.1996 32.8862 67.4548 32.6123 67.7292 32.3583Z" fill="#55463F"/>
<path d="M65.2242 34.8703C65.2146 34.9343 65.2005 34.9975 65.182 35.0595C65.1552 35.1799 65.1177 35.3485 65.0724 35.5516C64.9663 35.9469 64.8376 36.46 64.7204 36.9864C64.6031 37.5129 64.4842 38.0462 64.3395 38.4366C64.1948 38.8269 64.0865 39.1025 64.0865 39.1025C64.0543 38.8688 64.0369 38.6334 64.0343 38.3975C64.0309 37.8838 64.0857 37.3713 64.1977 36.87C64.3115 36.3609 64.5124 35.8754 64.7917 35.4348C64.9165 35.2325 65.0614 35.0434 65.2242 34.8703Z" fill="#55463F"/>
<path d="M64.9011 39.8041C64.9011 39.8041 64.9642 39.7315 65.0808 39.613C65.1974 39.4945 65.3328 39.308 65.495 39.0985C65.8863 38.5632 66.2394 38.001 66.5519 37.4162C66.9046 36.7724 67.223 36.121 67.4694 35.6305C67.5868 35.3786 67.7082 35.1745 67.7736 35.0265C67.8391 34.8786 67.8968 34.7975 67.8968 34.7975C67.8735 35.1117 67.8281 35.4238 67.7609 35.7316C67.6028 36.4089 67.3542 37.0617 67.0217 37.6725C66.6898 38.2937 66.247 38.8488 65.7149 39.3101C65.5366 39.4578 65.3444 39.588 65.1411 39.6987C64.9947 39.7564 64.9011 39.8041 64.9011 39.8041Z" fill="#55463F"/>
<path d="M65.2464 40.1338C65.2464 40.1338 65.2934 40.0684 65.3806 39.9687C65.4678 39.8689 65.5725 39.7225 65.703 39.5421C66.0037 39.1053 66.2795 38.6519 66.5289 38.1839C66.8075 37.6789 67.0718 37.1563 67.283 36.7591C67.3848 36.5615 67.4892 36.4005 67.5478 36.2835C67.6063 36.1666 67.6568 36.102 67.6568 36.102C67.6497 36.3577 67.6219 36.6124 67.5737 36.8636C67.4606 37.416 67.2654 37.9484 66.9945 38.4429C66.726 38.9454 66.362 39.3906 65.9229 39.7536C65.7216 39.9193 65.4925 40.048 65.2464 40.1338Z" fill="#55463F"/>
<path d="M66.941 40.1899C66.9701 40.137 67.0031 40.0864 67.0397 40.0385C67.1031 39.9479 67.1732 39.8118 67.2631 39.6512C67.4429 39.3301 67.6499 38.9031 67.8489 38.4635C68.0479 38.0238 68.2442 37.58 68.4023 37.2432C68.4799 37.0727 68.5683 36.919 68.6097 36.8307C68.6359 36.7777 68.6654 36.7264 68.698 36.677C68.7182 36.8921 68.7184 37.1085 68.6984 37.3236C68.6518 37.7949 68.5284 38.2554 68.3333 38.6869C68.1397 39.1268 67.8563 39.5213 67.5014 39.8452C67.3379 39.9943 67.1478 40.1112 66.941 40.1899Z" fill="#55463F"/>
<path d="M64.4326 31.0209C64.4326 31.0209 64.3851 31.1042 64.2903 31.2384C64.1954 31.3725 64.1001 31.5572 63.97 31.8171C63.6709 32.4107 63.4136 33.0243 63.2 33.6537C62.9676 34.3243 62.7619 35.0369 62.6038 35.5687C62.5432 35.8405 62.4479 36.0576 62.4057 36.2144C62.3821 36.2987 62.354 36.3816 62.3215 36.4629C62.2912 36.1493 62.2843 35.8339 62.3007 35.5192C62.3393 34.8247 62.4728 34.1387 62.6972 33.4803C62.9166 32.8121 63.257 32.1901 63.7015 31.6454C63.8536 31.4691 64.0214 31.307 64.2028 31.1611C64.3534 31.0682 64.4326 31.0209 64.4326 31.0209Z" fill="#55463F"/>
<path d="M93.264 13.7112C93.264 13.7112 93.3651 13.7915 93.516 13.9407C93.6009 14.034 93.6788 14.1335 93.7493 14.2382C93.8389 14.3697 93.9179 14.508 93.9855 14.652C94.3275 15.3549 94.511 16.1245 94.5228 16.9062C94.5273 17.1094 94.5194 17.3127 94.4991 17.5149C94.4829 17.7112 94.4527 17.906 94.4089 18.098C94.3701 18.2788 94.3208 18.4572 94.2611 18.6321C94.2227 18.8042 94.1225 18.9624 94.0678 19.0947C94.0045 19.2248 93.9341 19.3514 93.8569 19.4739C93.7999 19.5732 93.7342 19.6674 93.6607 19.7552L93.4779 19.9926L92.8862 19.6513L93.0759 19.448C93.1522 19.3753 93.2209 19.295 93.2809 19.2083C93.3459 19.1108 93.4407 19.0092 93.5088 18.8979C93.5916 18.7636 93.6671 18.6249 93.735 18.4824C93.8128 18.3253 93.8781 18.1624 93.9302 17.995C93.9938 17.8188 94.0437 17.6379 94.0795 17.454C94.1192 17.2636 94.1489 17.0713 94.1682 16.8778C94.2395 16.1344 94.1399 15.3845 93.877 14.6857C93.8258 14.5454 93.7617 14.4102 93.6855 14.2818C93.6265 14.1776 93.5608 14.0773 93.4889 13.9816C93.3568 13.7969 93.264 13.7112 93.264 13.7112Z" fill="#251F12"/>
<path d="M96.18 19.3016C96.18 19.3016 96.7184 19.7358 97.4844 20.4446C98.4433 21.3078 99.2189 22.355 99.7651 23.5242C99.9108 23.8457 100.034 24.1772 100.132 24.5162C100.23 24.8453 100.311 25.1792 100.375 25.5165C100.418 25.8438 100.487 26.1627 100.499 26.4686C100.51 26.7745 100.554 27.0624 100.542 27.327C100.552 27.7552 100.537 28.1837 100.498 28.6102C100.476 28.9195 100.465 29.0977 100.465 29.0977L99.7645 29.003L99.8279 28.5404C99.8908 28.1353 99.9312 27.7271 99.9487 27.3176C99.9764 27.0638 99.954 26.7915 99.9577 26.4998C99.9613 26.208 99.9202 25.9063 99.901 25.5878C99.8817 25.2693 99.812 24.9504 99.7319 24.6292C99.6581 24.3003 99.5613 23.977 99.4422 23.6617C98.9815 22.4905 98.2916 21.4232 97.413 20.5226C96.6928 19.7698 96.18 19.3016 96.18 19.3016Z" fill="#251F12"/>
<path d="M95.8258 20.8913L96.3428 20.9848C96.6694 21.0575 97.1382 21.1403 97.6941 21.2858C97.994 21.3654 98.2897 21.4602 98.58 21.5698C98.9075 21.6889 99.2254 21.8333 99.5304 22.0019C99.8608 22.1818 100.177 22.3863 100.477 22.6136C100.778 22.8624 101.057 23.1361 101.312 23.4318C101.567 23.7272 101.796 24.0441 101.997 24.3788C102.185 24.7048 102.351 25.0434 102.493 25.3922L102.699 25.8932C102.747 26.0629 102.801 26.2266 102.848 26.3888C102.958 26.6861 103.047 26.9907 103.114 27.3004C103.22 27.7602 103.301 28.2255 103.356 28.6942L103.426 29.2226L102.714 29.277L102.676 28.7631C102.652 28.3119 102.6 27.8625 102.521 27.4176C102.489 27.1199 102.434 26.8251 102.357 26.5358L102.24 26.0547L102.073 25.5733C101.957 25.2342 101.817 24.9038 101.655 24.5844C101.483 24.258 101.285 23.9467 101.061 23.6538C100.835 23.3613 100.585 23.0872 100.316 22.8342C100.043 22.5999 99.7525 22.3868 99.4473 22.1965C99.1586 22.0169 98.8575 21.8581 98.5462 21.7212C98.2513 21.5869 97.9607 21.4824 97.6925 21.3902C97.1512 21.2118 96.6762 21.0915 96.3656 21.0115L95.8258 20.8913Z" fill="#251F12"/>
<path d="M84.1864 18.2983L83.674 18.1842C83.3508 18.1122 82.8778 18.0321 82.312 17.9638C82.03 17.9335 81.7224 17.9047 81.3983 17.9012C81.0584 17.893 80.7184 17.909 80.3807 17.949C80.0236 17.9917 79.6702 18.0615 79.3236 18.1577C78.9721 18.2724 78.6303 18.4148 78.3012 18.5837C77.9742 18.7538 77.6621 18.9513 77.3684 19.174C77.0857 19.3942 76.8188 19.6341 76.5697 19.8918L76.2142 20.2568L75.9043 20.6429C75.713 20.8731 75.5381 21.1166 75.3811 21.3715C75.1208 21.7409 74.8832 22.1258 74.6696 22.524C74.5085 22.8096 74.4179 22.9736 74.4179 22.9736L73.796 22.6219L74.0836 22.1732C74.3323 21.7721 74.6029 21.3851 74.8941 21.0138C75.079 20.7585 75.2812 20.5164 75.4995 20.2891C75.6142 20.1629 75.7289 20.0368 75.8452 19.9038L76.2478 19.5384C76.5235 19.2818 76.8174 19.0455 77.1272 18.8314C77.4508 18.6134 77.7925 18.4237 78.1486 18.2643C78.505 18.1048 78.8743 17.9756 79.2524 17.8782C79.6203 17.7995 79.9936 17.7487 80.369 17.7261C80.7168 17.7029 81.0658 17.707 81.4129 17.7383C81.7223 17.7622 82.0304 17.8019 82.3357 17.8572C82.9016 17.9579 83.3673 18.087 83.687 18.1582L84.1864 18.2983Z" fill="#251F12"/>
<path d="M60.7126 60.599L60.231 60.1522C60.1378 60.0938 60.0302 60.0624 59.9202 60.0615C59.8102 60.0606 59.702 60.0902 59.6078 60.147C58.9858 60.6224 57.9262 62.3006 59.4971 62.8636C60.9893 63.3911 60.9723 61.9282 60.9723 61.9282C60.9723 61.9282 60.2921 62.0005 60.127 61.4942C59.9618 60.9879 60.5664 60.9312 60.7126 60.599Z" fill="black"/>
<path d="M98.3041 68.8685L98.9297 68.6683C99.0384 68.6548 99.1487 68.6719 99.2482 68.7177C99.3477 68.7634 99.4323 68.8361 99.4928 68.9274C99.8576 69.6227 100.105 71.5919 98.4434 71.4349C96.865 71.2783 97.504 69.9652 97.504 69.9652C97.504 69.9652 98.0899 70.316 98.4543 69.9276C98.8187 69.5393 98.2955 69.2313 98.3041 68.8685Z" fill="black"/>
<path opacity="0.3" d="M79.7034 60.3258C80.3919 60.1523 80.9974 59.7416 81.4134 59.1658C81.8295 58.59 82.0295 57.8861 81.9783 57.1775C81.8845 54.5526 82.9317 50.4518 82.9317 50.4518L83.8194 57.808C83.8194 57.808 84.0202 59.2071 83.2295 59.905C82.9492 60.1626 82.6197 60.3607 82.2609 60.4875C81.902 60.6142 81.5212 60.667 81.1415 60.6425C80.7361 60.5991 79.7034 60.3258 79.7034 60.3258Z" fill="url(#paint16_linear_2_17640)"/>
<g style="mix-blend-mode:multiply">
<path d="M72.1758 56.3193C75.4973 57.0593 78.7901 54.9647 79.5305 51.6409C80.2709 48.3172 78.1786 45.0229 74.8572 44.283C71.5358 43.5431 68.243 45.6377 67.5025 48.9614C66.7621 52.2852 68.8544 55.5794 72.1758 56.3193Z" fill="#D6D5D4"/>
</g>
<g style="mix-blend-mode:multiply">
<path d="M89.3752 60.1509C92.6967 60.8908 95.9895 58.7962 96.7299 55.4724C97.4703 52.1487 95.378 48.8544 92.0566 48.1145C88.7352 47.3746 85.4424 49.4692 84.702 52.793C83.9615 56.1167 86.0538 59.411 89.3752 60.1509Z" fill="#D6D5D4"/>
</g>
<path d="M100.91 54.6592C100.182 54.4139 99.4392 54.1979 98.7206 53.9728C98.4364 54.4549 98.4364 54.4549 98.0998 54.3294C98.0342 54.1053 98.0401 53.8357 97.9156 53.7466C97.4827 53.412 97.1733 52.9429 97.0361 52.413C96.2311 49.886 94.5425 48.2638 91.9372 47.7593C89.3319 47.2547 87.1365 48.1345 85.453 50.2154C85.1895 50.5396 84.942 50.8889 84.6766 51.2054C84.5432 51.3141 84.3946 51.4027 84.2356 51.4683C84.162 51.3233 84.1101 51.1681 84.0818 51.0079C84.0943 50.7719 84.0209 50.5395 83.8752 50.3536C83.7295 50.1677 83.5213 50.041 83.2893 49.997C83.0215 49.9193 82.7521 49.8485 82.4797 49.7914C81.5803 49.6163 81.4197 49.6889 80.8919 50.4381C80.8277 50.5322 80.674 50.6713 80.6282 50.6503C80.5107 50.588 80.4206 50.4842 80.3754 50.3592C80.2732 49.9753 80.1848 49.5944 80.1136 49.2174C79.5258 46.5582 77.9413 44.7606 75.3151 44.0419C72.6889 43.3232 70.4205 44.1253 68.5689 46.1507C68.285 46.4576 67.9321 46.6922 67.5394 46.8351C67.2199 46.9409 66.981 47.025 66.9525 47.3798C66.4883 47.3414 66.4883 47.3414 66.4623 46.7938C65.7424 46.6876 65.0096 46.5749 64.2745 46.4726C63.8267 46.4089 63.7917 46.7443 63.7086 47.0688C63.6243 47.4473 63.9261 47.3882 64.1091 47.4904C64.5617 47.7429 65.3468 47.5241 65.389 48.3714C65.3821 48.4024 65.4536 48.4544 65.4921 48.4594C65.7714 48.4701 66.0367 48.5841 66.2366 48.7795C66.4365 48.9748 66.5567 49.2375 66.5739 49.5166C66.5686 49.5407 66.6094 49.5679 66.6304 49.587C66.7659 49.7153 66.8708 49.8723 66.9376 50.0466C67.0043 50.2208 67.0312 50.4079 67.0161 50.5939C67.0496 52.069 67.576 53.4903 68.5112 54.6308C69.4464 55.7714 70.7366 56.5654 72.1758 56.8864C73.6041 57.2035 75.0973 57.04 76.4235 56.4212C77.7497 55.8024 78.8348 54.7628 79.5105 53.464C79.6758 53.11 79.9121 52.7938 80.2047 52.5351C80.5541 52.2828 80.8296 51.9413 81.0024 51.5463C81.0348 51.4613 81.084 51.3837 81.1472 51.3183C81.2103 51.2528 81.2861 51.2009 81.3699 51.1655C81.4536 51.1302 81.5436 51.1122 81.6345 51.1126C81.7254 51.113 81.8153 51.1319 81.8987 51.168C82.471 51.3533 83.2296 51.172 83.5306 51.9433C83.5561 52.0648 83.5685 52.1886 83.5674 52.3127C83.587 52.5406 83.6222 52.7668 83.6728 52.9899C83.8066 53.5073 83.9743 54.0178 84.102 54.5302C84.2925 55.295 84.3374 56.1465 84.6652 56.8624C85.7354 59.2678 87.6283 60.6213 90.2548 60.82C92.6525 60.9929 94.5736 60.016 96.0426 58.1365C96.5459 57.4974 96.7112 56.5771 97.6128 56.2723C97.6393 56.2558 97.66 56.2313 97.6717 56.2024C97.8868 55.7555 98.2566 55.7801 98.6643 55.8456C98.8319 55.8379 98.9954 55.7915 99.1421 55.7101C99.324 55.6031 99.5216 55.5252 99.7276 55.4793C100.037 55.4854 100.346 55.5239 100.648 55.594C100.864 55.6422 101.061 55.6645 101.098 55.3728C101.134 55.081 101.32 54.7974 100.91 54.6592ZM72.3244 56.3488C70.7597 56.0003 69.3964 55.0464 68.5323 53.6955C67.6681 52.3445 67.3733 50.7062 67.7121 49.1381C68.0591 47.5718 69.0112 46.2064 70.3606 45.3397C71.7099 44.4731 73.3469 44.1756 74.9143 44.5124C75.6941 44.6804 76.4328 45.0013 77.0879 45.4567C77.7429 45.9121 78.3013 46.4928 78.7307 47.1654C79.1601 47.838 79.452 48.5891 79.5896 49.3754C79.7272 50.1616 79.7077 50.9673 79.5323 51.746C79.3609 52.5218 79.0385 53.2561 78.5835 53.9073C78.1285 54.5584 77.5498 55.1135 76.8805 55.5409C76.2112 55.9683 75.4644 56.2596 74.6826 56.3983C73.9009 56.5369 73.0996 56.5201 72.3244 56.3488ZM89.3622 60.1444C87.7981 59.795 86.4365 58.839 85.5762 57.4862C84.7158 56.1333 84.4269 54.494 84.7729 52.928C85.1179 51.3623 86.0691 49.9972 87.4181 49.1319C88.7671 48.2665 90.4038 47.9716 91.9694 48.3118C92.7482 48.482 93.4858 48.8041 94.1401 49.2598C94.7944 49.7155 95.3524 50.2958 95.7824 50.9675C96.2123 51.6392 96.5056 52.3892 96.6456 53.1745C96.7857 53.9598 96.7696 54.7651 96.5984 55.5443C96.2469 57.1133 95.2876 58.4787 93.9309 59.3406C92.5742 60.2024 90.9313 60.4903 89.363 60.1409L89.3622 60.1444Z" fill="black"/>
<g style="mix-blend-mode:multiply" opacity="0.2">
<path d="M68.5656 101.719C68.5656 101.719 65.2438 118.25 65.376 119.974C68.0972 106.722 68.5656 101.719 68.5656 101.719Z" fill="#2B2B33"/>
</g>
<path d="M82.4957 75.9977C82.4957 75.9977 84.6991 77.5937 85.3527 78.0138C86.0062 78.4339 85.7761 81.2973 85.7761 81.2973L89.1334 90.9011L84.4209 92.4191C84.4209 92.4191 82.9463 89.0424 82.4922 88.6017C82.1816 88.3179 81.8159 88.1012 81.4178 87.9651C81.4178 87.9651 81.1367 88.8704 80.4473 88.4171C79.9016 87.9926 79.4213 87.4901 79.0219 86.9257C79.0219 86.9257 78.3694 87.3113 78.1588 86.7984C77.9482 86.2856 77.6089 85.1843 77.6089 85.1843C77.6089 85.1843 79.0406 83.4229 79.5886 83.4583C80.1365 83.4937 82.9709 83.7965 82.9709 83.7965C82.9709 83.7965 82.8258 83.5402 82.0538 83.166C81.2818 82.7917 76.6639 81.0985 76.4485 80.9963C76.1215 80.844 75.7977 79.9159 76.826 79.8849C77.8543 79.854 83.5709 81.2322 83.5709 81.2322C83.5709 81.2322 83.9686 79.6739 83.7495 79.3289C83.5304 78.9839 81.5544 77.453 82.4957 75.9977Z" fill="#FDCB94"/>
<path d="M79.0207 86.8496C78.9866 86.6213 79.004 86.3883 79.0716 86.1675C79.1282 85.9151 79.2611 85.6862 79.4523 85.512C79.7039 85.3356 80.0098 85.254 80.3157 85.2817C80.8362 85.2685 81.3565 85.3117 81.8677 85.4108C82.0833 85.4357 82.293 85.4983 82.487 85.5957C82.4747 85.6507 81.5169 85.4301 80.3174 85.4519C80.0486 85.4302 79.7802 85.4972 79.5531 85.6428C79.3802 85.7907 79.255 85.9865 79.1931 86.2055C79.0775 86.595 79.0482 86.8558 79.0207 86.8496Z" fill="#7B4B45"/>
<path d="M79.9177 87.1975C80.2145 87.3422 80.5025 87.5041 80.7805 87.6823C81.0849 87.8095 81.3817 87.954 81.6695 88.1151C81.3283 88.123 80.9923 88.0293 80.7044 87.8459C80.3852 87.7102 80.112 87.485 79.9177 87.1975Z" fill="#7B4B45"/>
<path d="M83.3131 81.1748C83.4708 81.1922 83.6232 81.2428 83.7601 81.3231C83.8971 81.4034 84.0156 81.5116 84.1079 81.6408C84.345 81.8694 84.4839 82.1814 84.4952 82.5108C84.4451 82.5249 84.3094 82.1299 83.9788 81.7673C83.6481 81.4047 83.2947 81.2248 83.3131 81.1748Z" fill="#7B4B45"/>
<g style="mix-blend-mode:multiply" opacity="0.2">
<path d="M50.8015 121.014C50.8015 121.014 52.9303 124.97 56.2278 125.17C59.5253 125.37 63.1035 124.116 65.3737 119.984C63.8008 122.444 62.5109 125.205 56.2333 125.486C54.4896 125.585 52.0116 123.844 50.8015 121.014Z" fill="#2B2B33"/>
</g>
<path d="M87.8033 87.3615C87.6707 87.3573 82.9747 88.7852 82.4881 89.0415C83.272 90.5778 83.5929 91.3571 83.8875 91.914C85.8261 93.386 88.9919 91.5847 89.2063 90.3792C88.5541 89.1757 88.0209 87.7134 87.8033 87.3615Z" fill="url(#paint17_radial_2_17640)"/>
<path style="mix-blend-mode:multiply" d="M98.0931 104.194C97.9433 103.652 98.3347 106.852 98.2848 107.741C98.2349 108.629 93.2294 97.4479 93.2294 97.4479L98.0931 104.194Z" fill="url(#paint18_linear_2_17640)"/>
<g style="mix-blend-mode:multiply" opacity="0.2">
<path d="M65.256 120.222C65.256 120.222 65.1131 127.052 73.5592 128.54C77.7931 129.559 82.6868 127.843 82.6868 127.843C82.6868 127.843 78.8258 130.139 73.5031 128.856C70.6461 128.137 65.4499 127.857 65.256 120.222Z" fill="#2B2B33"/>
</g>
<path d="M95.3448 113.388C95.3448 113.388 90.0752 114.247 87.6587 106.367C85.2421 98.4856 83.0949 90.7406 83.0949 90.7406L88.556 88.5838L97.0305 104.622C97.8059 105.653 98.2349 106.903 98.2562 108.193C98.2609 109.711 97.6074 111.559 95.3448 113.388Z" fill="#05BFDD"/>
<g style="mix-blend-mode:darken">
<path style="mix-blend-mode:darken" d="M86.2369 94.9898C86.3708 94.7368 86.2215 94.3952 85.9035 94.2267C85.5854 94.0581 85.2191 94.1265 85.0851 94.3794C84.9512 94.6324 85.1005 94.974 85.4186 95.1426C85.7366 95.3111 86.103 95.2427 86.2369 94.9898Z" fill="url(#paint19_radial_2_17640)"/>
<path style="mix-blend-mode:darken" d="M85.667 93.3601C85.8009 93.1072 85.6516 92.7656 85.3336 92.597C85.0155 92.4285 84.6491 92.4969 84.5152 92.7498C84.3813 93.0027 84.5306 93.3444 84.8487 93.5129C85.1667 93.6815 85.5331 93.6131 85.667 93.3601Z" fill="url(#paint20_radial_2_17640)"/>
<path style="mix-blend-mode:darken" d="M85.2671 91.904C85.401 91.651 85.2517 91.3094 84.9336 91.1408C84.6156 90.9723 84.2492 91.0407 84.1153 91.2936C83.9814 91.5466 84.1307 91.8882 84.4487 92.0567C84.7668 92.2253 85.1332 92.1569 85.2671 91.904Z" fill="url(#paint21_radial_2_17640)"/>
</g>
<path d="M85.1385 67.3586C83.1016 67.7861 76.2715 66.8857 73.3009 64.5698C73.3009 64.5698 79.6204 66.7578 85.1385 67.3586Z" fill="#784421"/>
</g>
<defs>
<radialGradient id="paint0_radial_2_17640" cx="0" cy="0" r="1" gradientUnits="userSpaceOnUse" gradientTransform="translate(37.9112 78.6831) rotate(12.5588) scale(5.97305 4.76109)">
<stop offset="0.4" stop-color="#DBECF7"/>
<stop offset="1" stop-color="#B3C6D2"/>
</radialGradient>
<linearGradient id="paint1_linear_2_17640" x1="47.2634" y1="84.2752" x2="40.5462" y2="91.7868" gradientUnits="userSpaceOnUse">
<stop stop-color="#A6A5B1"/>
<stop offset="1" stop-color="#A6A5B1" stop-opacity="0"/>
</linearGradient>
<linearGradient id="paint2_linear_2_17640" x1="4766.38" y1="-1683.32" x2="4769.6" y2="-1682.6" gradientUnits="userSpaceOnUse">
<stop stop-color="#A6A5B1"/>
<stop offset="1" stop-color="#A6A5B1" stop-opacity="0"/>
</linearGradient>
<linearGradient id="paint3_linear_2_17640" x1="9523.12" y1="-984.73" x2="9574.21" y2="-774.946" gradientUnits="userSpaceOnUse">
<stop stop-color="#A6A5B1"/>
<stop offset="1" stop-color="#A6A5B1" stop-opacity="0"/>
</linearGradient>
<radialGradient id="paint4_radial_2_17640" cx="0" cy="0" r="1" gradientUnits="userSpaceOnUse" gradientTransform="translate(30.7648 81.151) rotate(73.8695) scale(0.769639 0.884185)">
<stop offset="0.41" stop-color="#2A2E36"/>
<stop offset="1" stop-color="#2B2B33"/>
</radialGradient>
<radialGradient id="paint5_radial_2_17640" cx="0" cy="0" r="1" gradientUnits="userSpaceOnUse" gradientTransform="translate(1838.37 -2350.67) rotate(12.5588) scale(1.48592 1.18153)">
<stop offset="0.41" stop-color="#2A2E36"/>
<stop offset="1" stop-color="#2B2B33"/>
</radialGradient>
<radialGradient id="paint6_radial_2_17640" cx="0" cy="0" r="1" gradientUnits="userSpaceOnUse" gradientTransform="translate(1834.86 -2352.06) rotate(12.5588) scale(1.48592 1.18153)">
<stop offset="0.41" stop-color="#2A2E36"/>
<stop offset="1" stop-color="#2B2B33"/>
</radialGradient>
<radialGradient id="paint7_radial_2_17640" cx="0" cy="0" r="1" gradientUnits="userSpaceOnUse" gradientTransform="translate(64.6231 193.831) rotate(12.5588) scale(1.49277 1.32196)">
<stop stop-color="#959A9E"/>
<stop offset="1" stop-color="#959A9E" stop-opacity="0"/>
</radialGradient>
<linearGradient id="paint8_linear_2_17640" x1="27026.5" y1="6008.2" x2="27030.8" y2="5988.99" gradientUnits="userSpaceOnUse">
<stop stop-color="#A6A5B1"/>
<stop offset="1" stop-color="#A6A5B1" stop-opacity="0"/>
</linearGradient>
<radialGradient id="paint9_radial_2_17640" cx="0" cy="0" r="1" gradientUnits="userSpaceOnUse" gradientTransform="translate(51.8229 189.233) rotate(12.5588) scale(1.20438 0.960006)">
<stop offset="0.45" stop-color="#43352A"/>
<stop offset="1" stop-color="#382E28"/>
</radialGradient>
<radialGradient id="paint10_radial_2_17640" cx="0" cy="0" r="1" gradientUnits="userSpaceOnUse" gradientTransform="translate(27698.9 5887.9) rotate(12.5588) scale(47.0295 9.56217)">
<stop stop-color="#959A9E"/>
<stop offset="1" stop-color="#959A9E" stop-opacity="0"/>
</radialGradient>
<linearGradient id="paint11_linear_2_17640" x1="48774.5" y1="10395.3" x2="48755.9" y2="10502.6" gradientUnits="userSpaceOnUse">
<stop stop-color="#A6A5B1"/>
<stop offset="1" stop-color="#A6A5B1" stop-opacity="0"/>
</linearGradient>
<linearGradient id="paint12_linear_2_17640" x1="28830.1" y1="-24.9361" x2="28927.7" y2="-7488.7" gradientUnits="userSpaceOnUse">
<stop stop-color="#A6A5B1"/>
<stop offset="1" stop-color="#A6A5B1" stop-opacity="0"/>
</linearGradient>
<linearGradient id="paint13_linear_2_17640" x1="-4302.35" y1="28454.2" x2="-5856.69" y2="21220.4" gradientUnits="userSpaceOnUse">
<stop stop-color="#A6A5B1"/>
<stop offset="1" stop-color="#A6A5B1" stop-opacity="0"/>
</linearGradient>
<linearGradient id="paint14_linear_2_17640" x1="98.6823" y1="62.2133" x2="103.956" y2="65.9097" gradientUnits="userSpaceOnUse">
<stop stop-color="#E18565"/>
<stop offset="1" stop-color="#E18565" stop-opacity="0"/>
</linearGradient>
<linearGradient id="paint15_linear_2_17640" x1="14590" y1="-1742.85" x2="14508.7" y2="-1746.48" gradientUnits="userSpaceOnUse">
<stop stop-color="#E18565"/>
<stop offset="1" stop-color="#E18565" stop-opacity="0"/>
</linearGradient>
<linearGradient id="paint16_linear_2_17640" x1="84.2962" y1="59.0374" x2="79.5422" y2="53.2259" gradientUnits="userSpaceOnUse">
<stop stop-color="#9E5D45"/>
<stop offset="1" stop-color="#FDCB94" stop-opacity="0"/>
</linearGradient>
<radialGradient id="paint17_radial_2_17640" cx="0" cy="0" r="1" gradientUnits="userSpaceOnUse" gradientTransform="translate(35026.5 5372.67) rotate(16.3562) scale(98.7505 63.5173)">
<stop offset="0.4" stop-color="#DBECF7"/>
<stop offset="1" stop-color="#B3C6D2"/>
</radialGradient>
<linearGradient id="paint18_linear_2_17640" x1="25743.6" y1="1547.23" x2="25551.9" y2="1329.73" gradientUnits="userSpaceOnUse">
<stop stop-color="#A6A5B1"/>
<stop offset="1" stop-color="#A6A5B1" stop-opacity="0"/>
</linearGradient>
<radialGradient id="paint19_radial_2_17640" cx="0" cy="0" r="1" gradientUnits="userSpaceOnUse" gradientTransform="translate(6121.52 4122.88) rotate(89.2116) scale(2.263 3.27105)">
<stop offset="0.41" stop-color="#2A2E36"/>
<stop offset="1" stop-color="#2B2B33"/>
</radialGradient>
<radialGradient id="paint20_radial_2_17640" cx="0" cy="0" r="1" gradientUnits="userSpaceOnUse" gradientTransform="translate(6122.68 4116.84) rotate(89.2114) scale(2.26301 3.27108)">
<stop offset="0.41" stop-color="#2A2E36"/>
<stop offset="1" stop-color="#2B2B33"/>
</radialGradient>
<radialGradient id="paint21_radial_2_17640" cx="0" cy="0" r="1" gradientUnits="userSpaceOnUse" gradientTransform="translate(6124.11 4111.58) rotate(89.2115) scale(2.263 3.27106)">
<stop offset="0.41" stop-color="#2A2E36"/>
<stop offset="1" stop-color="#2B2B33"/>
</radialGradient>
<clipPath id="clip0_2_17640">
<rect width="81.2536" height="185.856" fill="white" transform="translate(40.6904 0.922974) rotate(12.5588)"/>
</clipPath>
</defs>
</svg>
